<svg width="100%" height="100%" viewBox="0 0 174 197" version="1.1" xmlns="http://www.w3.org/2000/svg" xmlnsXlink="http://www.w3.org/1999/xlink" xmlSpace="preserve" xmlnsserif="http://www.serif.com/" style={{fillRule:'evenodd',clipRule:'evenodd',strokeLinecap:'round',strokeLinejoin:'round',strokeMiterlimit:'1.5'}}><g><path d="M139.816,115.167l5.237,39.031l8.002,12.051" style={{fill:'none',stroke:'#fff',strokeWidth:'1px'}}/><path d="M121.504,107.083l-1.075,0.994l-2.481,1.327l-3.087,2.658l-1.865,5.872l-1.51,2.978l-3.427,0l-2.035,1.038l-1.16,6.615l-2.567,0l-2.905,6.846l-13.865,5.832l-2.625,-9.132l-4.577,-5.339l-5.165,-2.208l-5.425,0l-5.874,-1.077l-6.206,1.077l-6.725,0l-3.419,2.208l-2.941,3.168l-2.13,3.708l-0.503,1.763" style={{fill:'none',stroke:'#fff',strokeWidth:'1px',}}/><path d="M153.003,65.166l-2.721,21.475l2.721,5.77l0,6.694l-8.784,13.919l-6.897,3.192l-3.784,2.99l-2.703,4.061l-3.752,2.562l-1.779,5.648l-0.823,2.373l1.805,0l0.797,1.111l-2.602,2.09l-0.786,1.515l2.591,0.982l-3.276,1.695l0.685,0.913l0,3.219l-1.829,0l0,1.273l-3.274,3.442l1.574,2.367l-1.574,2.213l-6.11,2.689l-1.979,3.491l-3.62,2.578l-1.609,2.192l-0.769,1.192l-2.511,0.675l0,1.209l-3.026,3.518l-3.464,3.129l-1.037,1.943l-6.97,0l-2.268,3.763l-3.246,0l-1.46,2.751l-2.932,0l-3.393,2.542l-9.556,-1.139l-3.758,-1.403l-3.6,1.403l-6.215,-4.154l-1.285,-1.672l-1.961,0l-1.349,-2.091l-5.665,-7.263l-0.678,-4.403l-1.675,0l1.675,-6.273l0,-1.988l-1.675,-0.915l0,-2.676l3.149,0l1.986,-3.678l-5.135,-20.593l0,-6.23l1.675,-12.64c-8.325,-3.428 -13.059,-10.544 -13.912,-21.648l-1.776,0l0,-6.956l14.013,-0.917l1.675,-6.217l7.692,-31.498l0,-3.395l3.246,0l-3.246,-5.973l-1.349,0l2.141,-3.353l5.369,0.874l-2.915,-3.333l0,-2.536l-4.595,-2.231l5.628,0l1.882,-1.713l-1.882,-1.225l-3.487,-2.137l5.369,0l0,-3.678l5.873,-4.422l3.743,1.544l4.001,-1.544l4.218,0l2.379,-2.433l1.538,0.993l0.938,-2.798l2.491,0l0,1.805l4.587,-1.805l0,-2.157l4.873,0l-1.128,-2.118l1.128,-1.256l1.51,0l1.568,2.27l0.817,2.38l1.947,0l2.144,-2.38l3.795,3.261l3.382,2.798l0,-2.798l8.694,4.238l0,2.91l2.379,0l0,-2.91l5.305,4.422l6.917,0l1.371,1.051l2.381,0l0,2.627l2.703,2.137l4.706,-2.137l3.528,3.362l-1.453,0.872l-2.075,-0.872l0,4.825l8.836,0l3.202,4.114l0,6.093l2.721,6.628l0,21.775Z" style={{fill:'none',stroke:'#fff',strokeWidth:'1px'}}/><path d="M60.435,196.016l3.53,-10.999" style={{fill:'none',stroke:'#fff',strokeWidth:'1px'}}/><path d="M52.982,138.566l4.302,2.677l7.318,0l10.725,-5.323l2.998,-1.134l-4.082,-2.675l-5.559,0l-3.245,0l-2.523,1.476l-2.342,0l-4.086,-1.476l-2.218,0l-2.07,3.809l0.782,2.646Z" style={{fill:'none',stroke:'#fff',strokeWidth:'1px'}}/><path d="M51.187,40.016l9.387,3.325l20.191,-8.87l2.838,2.168l9.453,-7.601l2.407,3.32l8.199,2.113l8.589,2.168l3.69,4.009l0,2.693l1.658,7.938l5.281,4.998l2.889,0.906l3.014,0l3.041,3.08l0,8.677" style={{fill:'none',stroke:'#fff',strokeWidth:'1px'}}/><path d="M170.641,64.596c-0.033,-0.514 -0.476,-0.904 -0.99,-0.871l-168.278,10.758c-0.514,0.033 -0.904,0.477 -0.871,0.991l2.471,38.657c0.033,0.513 0.477,0.904 0.991,0.871l168.278,-10.759c0.513,-0.033 0.904,-0.477 0.871,-0.99l-2.472,-38.657Z" style={{stroke:'#fff';strokeWidth:'1px'}}/><g transform="matrix(0.569404,-0.0348703,0.0348703,0.569404,-505.506,-96.8373)"><text x="961.571px" y="403.228px" style={{fontFamily:'Ranger',fontSize:'39.299px',fill:'#fff',stroke:'#fff',strokeWidth:'1.75px',strokeLinecap:'butt',strokeMiterlimit:'1.41421'}}>I</text><text x="974.461px" y="403.228px" style={{fontFamily:'LucidaGrande,Lucida Grande, sansSerif',fontWeight:'500';fontSize:'39.299px';fill:'#fff';stroke:'#fff';strokeWidth:'1.75px';strokeLinecap:'butt';strokeMiterlimit:'1.41421'}}>&apos;</text><text x="983.46px" y="403.228px" style={{fontFamily:'Ranger',fontSize:'39.299px',fill:'#fff',stroke:'#fff',strokeWidth:'1.75px',strokeLinecap:'butt',strokeMiterlimit:'1.41421'}}>m In</text></g></g></svg>