<svg width="100%" height="100%" viewBox="0 0 404 261" version="1.1" xmlns="http://www.w3.org/2000/svg" xmlnsXlink="http://www.w3.org/1999/xlink" xmlSpace="preserve" xmlnsserif="http://www.serif.com/" style={{fillRule:'evenodd',clipRule:'evenodd',strokeLinecap:'square',strokeLinejoin:'round',strokeMiterlimit:'1.5'}}><g><g><path d="M0.566,260.13l0,-259.564" style={{fill:'none',stroke:'#fff',strokeWidth:'0.8px'}}/><path d="M247.041,118.028l155.436,142.102l-401.911,0l155.413,-141.996" style={{fill:'none',stroke:'#fff',strokeWidth:'0.8px'}}/><path d="M235.066,126.938l167.411,-126.372l-401.911,0l155.477,117.364l11.985,9.048" style={{fill:'none',stroke:'#fff',strokeWidth:'0.8px'}}/><path d="M201.521,165.827l3.23,-3.894l3.969,3.137l2.349,-4.479l4.535,2.244l1.366,-4.87l4.902,1.252l0.324,-5.047l5.056,0.206l-0.734,-5.004l4.988,-0.849l-1.759,-4.742l4.703,-1.867l-2.707,-4.274l4.212,-2.803l-3.536,-3.618l3.536,-3.617l-4.212,-2.803l2.707,-4.274l-4.703,-1.867l1.759,-4.742l-4.988,-0.849l0.734,-5.004l-5.056,0.206l-0.324,-5.048l-4.902,1.253l-1.366,-4.87l-4.535,2.244l-2.349,-4.48l-3.969,3.138l-3.23,-3.894l-3.23,3.894l-3.969,-3.138l-2.349,4.48l-4.535,-2.244l-1.366,4.87l-4.902,-1.253l-0.323,5.048l-5.056,-0.206l0.734,5.004l-4.989,0.849l1.759,4.742l-4.703,1.867l2.707,4.274l-4.212,2.803l3.537,3.617l-3.537,3.618l4.212,2.803l-2.707,4.274l4.703,1.867l-1.759,4.742l4.989,0.849l-0.734,5.004l5.056,-0.206l0.323,5.047l4.902,-1.252l1.366,4.87l4.535,-2.244l2.349,4.479l3.969,-3.137l3.23,3.894Z" style={{fill:'none',stroke:'#fff',strokeWidth:'0.8px'}}/><g><path d="M204.594,116.619c0.478,0.606 0.661,1.419 0.55,2.439l-0.192,1.434c-0.016,0.144 -0.071,0.239 -0.167,0.287c-0.096,0.048 -0.175,0.08 -0.239,0.096l-2.893,0c-0.064,-0.016 -0.132,-0.04 -0.203,-0.072c-0.072,-0.032 -0.124,-0.104 -0.156,-0.215l0,-0.12l0.12,-0.86c0.016,-0.128 -0.008,-0.239 -0.072,-0.335c-0.048,-0.048 -0.119,-0.088 -0.215,-0.12c-0.048,-0.016 -0.088,-0.024 -0.12,-0.024l-2.319,0c-0.016,0 -0.103,0.024 -0.263,0.072c-0.159,0.048 -0.255,0.191 -0.287,0.431l-1.171,9.515c-0.032,0.144 -0.008,0.255 0.071,0.335c0.032,0.048 0.104,0.088 0.216,0.12c0.047,0.016 0.087,0.024 0.119,0.024l2.319,0c0.096,0.016 0.176,0 0.239,-0.048c0.16,-0.064 0.263,-0.207 0.311,-0.431l0.12,-1.052l-1.339,0c-0.144,-0.031 -0.239,-0.091 -0.287,-0.179c-0.048,-0.088 -0.072,-0.171 -0.072,-0.251l0.359,-2.893c0.016,-0.08 0.052,-0.163 0.108,-0.251c0.055,-0.088 0.163,-0.116 0.322,-0.084l4.639,-0.024c0.063,0 0.135,0.02 0.215,0.06c0.08,0.04 0.119,0.124 0.119,0.251c0.016,0.016 0.016,0.048 0,0.096c-0.031,0.175 -0.067,0.426 -0.107,0.753c-0.04,0.327 -0.084,0.697 -0.132,1.112c-0.047,0.414 -0.099,0.856 -0.155,1.327c-0.056,0.47 -0.116,0.936 -0.179,1.398c-0.144,1.084 -0.287,2.256 -0.431,3.515c-0.032,0.143 -0.091,0.239 -0.179,0.287c-0.088,0.048 -0.171,0.072 -0.251,0.072l-6.623,0l-0.239,0c-0.128,-0.016 -0.287,-0.044 -0.478,-0.084c-0.192,-0.04 -0.395,-0.1 -0.61,-0.179c-0.215,-0.08 -0.434,-0.192 -0.657,-0.335c-0.224,-0.144 -0.423,-0.327 -0.598,-0.55c-0.494,-0.59 -0.678,-1.395 -0.55,-2.415l0.239,-2.176c0.064,-0.414 0.008,-0.741 -0.167,-0.98c-0.096,-0.095 -0.192,-0.159 -0.287,-0.191c-0.064,-0.016 -0.112,-0.024 -0.144,-0.024l0,-0.191c0,0 0.04,-0.008 0.12,-0.024c0.08,-0.016 0.171,-0.056 0.275,-0.12c0.103,-0.063 0.203,-0.167 0.299,-0.311c0.095,-0.143 0.167,-0.342 0.215,-0.597l0.072,-0.55c0.127,-1.068 0.247,-2.032 0.358,-2.893c0.048,-0.367 0.092,-0.725 0.132,-1.076c0.04,-0.351 0.079,-0.666 0.119,-0.945c0.04,-0.278 0.072,-0.506 0.096,-0.681c0.024,-0.175 0.036,-0.271 0.036,-0.287c0.127,-0.669 0.358,-1.207 0.693,-1.614c0.335,-0.406 0.693,-0.725 1.076,-0.956c0.383,-0.231 0.753,-0.387 1.112,-0.466c0.358,-0.08 0.625,-0.128 0.801,-0.144l0.024,0c0.032,0 0.059,-0.004 0.083,-0.012c0.024,-0.008 0.052,-0.012 0.084,-0.012l3.61,0c0.032,0 0.06,0.004 0.084,0.012c0.024,0.008 0.052,0.012 0.084,0.012c0.111,0 0.263,0.02 0.454,0.06c0.191,0.04 0.398,0.1 0.622,0.179c0.223,0.08 0.446,0.192 0.669,0.335c0.223,0.144 0.422,0.327 0.598,0.55Z" style={{fill:'#fff',fillRule:'nonzero'}}/><path d="M210.087,129.562c0.064,0.063 0.088,0.159 0.072,0.286l-0.358,2.893c-0.032,0.144 -0.092,0.24 -0.18,0.287c-0.087,0.048 -0.171,0.072 -0.251,0.072l-4.901,0c-0.239,0 -0.458,0.008 -0.658,0.024c-0.199,0.016 -0.378,0.076 -0.538,0.179c-0.159,0.104 -0.298,0.271 -0.418,0.502c-0.12,0.232 -0.203,0.554 -0.251,0.969l-0.215,1.745c-0.064,0.558 0.008,0.964 0.215,1.22c0.175,0.191 0.422,0.302 0.741,0.334c0.319,0.032 0.646,0.048 0.98,0.048l1.77,0c0.016,0 0.091,0.004 0.227,0.012c0.135,0.008 0.299,0.04 0.49,0.096c0.191,0.055 0.398,0.143 0.622,0.263c0.223,0.119 0.43,0.291 0.621,0.514c0.558,0.637 0.765,1.53 0.622,2.678l-0.215,1.745c-0.112,0.877 -0.379,1.554 -0.801,2.032c-0.423,0.478 -0.869,0.829 -1.339,1.052c-0.47,0.223 -0.893,0.355 -1.267,0.395c-0.375,0.04 -0.57,0.059 -0.586,0.059l-6.647,0c-0.016,0 -0.056,-0.004 -0.119,-0.012c-0.064,-0.007 -0.12,-0.043 -0.168,-0.107c-0.064,-0.064 -0.088,-0.152 -0.072,-0.263l0.359,-2.893c0.032,-0.144 0.092,-0.243 0.179,-0.299c0.088,-0.056 0.172,-0.084 0.251,-0.084l5.763,0c0,0 0.043,-0.004 0.131,-0.012c0.088,-0.008 0.183,-0.035 0.287,-0.083c0.104,-0.048 0.199,-0.128 0.287,-0.239c0.088,-0.112 0.147,-0.263 0.179,-0.455c0.032,-0.239 -0.008,-0.414 -0.119,-0.526c-0.096,-0.095 -0.216,-0.159 -0.359,-0.191c-0.064,-0.016 -0.128,-0.024 -0.191,-0.024l-2.559,0c-0.015,0 -0.083,-0.004 -0.203,-0.012c-0.119,-0.008 -0.275,-0.032 -0.466,-0.072c-0.191,-0.039 -0.402,-0.099 -0.634,-0.179c-0.231,-0.08 -0.458,-0.191 -0.681,-0.335c-0.972,-0.637 -1.363,-1.633 -1.172,-2.988l0.67,-5.189c0.064,-0.589 0.207,-1.083 0.43,-1.482c0.223,-0.398 0.482,-0.733 0.777,-1.004c0.295,-0.271 0.602,-0.478 0.921,-0.622c0.319,-0.143 0.613,-0.247 0.884,-0.311c0.271,-0.063 0.499,-0.103 0.682,-0.119c0.183,-0.016 0.275,-0.024 0.275,-0.024l6.647,0c0.016,0 0.055,0.004 0.119,0.012c0.064,0.008 0.12,0.044 0.167,0.108Z" style={{fill:'#fff',fillRule:'nonzero'}}/></g></g><path d="M402.477,260.13l0,-259.564" style={{fill:'none',stroke:'#fff',strokeWidth:'0.8px'}}/></g></svg>