<svg width="100%" height="100%" viewBox="0 0 713 800" version="1.1" xmlns="http://www.w3.org/2000/svg" xmlns:xlink="http://www.w3.org/1999/xlink" xml:space="preserve" xmlns:serif="http://www.serif.com/" style="fill-rule:evenodd;clip-rule:evenodd;stroke-linejoin:round;stroke-miterlimit:1.41421;"><g><rect x="0" y="0" width="712.602" height="800" style="fill:url(#_Linear1);"/><path d="M289.948,705.828c0.444,0.698 0.102,1.041 -0.56,1.23c-0.638,0.184 -1.279,0.357 -1.918,0.533c-9.222,0.003 -18.443,0.006 -27.664,0.009l-1.88,-0.595c-2.503,-1.13 -5.148,-0.288 -7.712,-0.557c-1.143,-0.12 -2.426,0.383 -3.479,-0.821c0.281,-1.794 0.159,-3.982 2.511,-4.543c3.166,-0.755 6.247,-2.256 9.678,-1.385c0.944,0.239 2.002,0.317 3.001,-0.585c-0.327,-2.561 0.313,-5.201 0.272,-7.886c-0.064,-4.312 -0.027,-8.628 -0.003,-12.942c0.005,-0.704 -0.206,-1.563 0.966,-2.155c0.416,7.269 1.959,14.204 1.011,21.138c0.919,0.931 1.846,1.211 2.894,1.139c1.056,-0.073 2.014,-0.932 3.075,-0.523c0.875,1.443 -1.059,2.14 -0.705,3.359c5.27,1 10.015,-2.174 10.163,-7.004c0.084,-2.755 0.438,-5.348 1.543,-7.893c0.543,-1.248 0.726,-2.722 -0.682,-3.688c-1.804,0.174 -1.92,2.11 -3.206,2.69c0.266,-2.443 1.33,-4.299 3.272,-5.111c1.91,0.008 2.157,1.58 3.671,2.355c-0.003,-2.496 1.774,-3.723 2.994,-5.36c1.239,-1.661 2.229,-3.566 2.138,-5.81c-0.027,-0.685 0.136,-1.379 0.211,-2.07c0.217,-0.93 1.571,-1.055 1.554,-2.088c-0.763,-0.808 -1.845,0.267 -2.558,-0.552c-1.981,-8.508 -2.157,-8.362 -1.001,-11.527c1.23,-1.258 3.766,-0.624 4.178,-2.986c0.507,0.495 0.601,1.131 0.613,1.795c-1.308,1.065 -2.839,1.865 -3.756,3.032c-1.455,3.597 0.668,5.2 3.161,6.613c0.455,0.952 -0.39,2.172 0.623,3.008l-0.006,-0.009c-0.293,1.49 0.696,2.657 1.072,4.092c-2.144,4.366 -2.797,8.97 -1.781,13.842c0.262,1.256 0.416,2.741 -0.364,3.896c-1.693,0.194 -1.549,-1.815 -2.848,-2.043c-1.057,1.858 -1.081,3.732 -0.743,5.624c0.387,2.16 0.819,4.312 1.304,6.451c0.386,1.703 0.542,3.346 -0.429,4.924c-0.321,0.524 -0.444,1.112 -0.173,1.716c0.357,0.604 0.957,0.652 1.563,0.687" style="fill:#cacaca;fill-rule:nonzero;"/><path d="M171.21,352.902c-2.374,1.823 -2.834,4.923 -1.12,7.538c2.269,-3.335 2.622,-5.704 1.12,-7.538m43.411,46.728c-2.071,0.454 -3.49,-1.025 -5.127,-1.755c-2.219,1.319 -2.219,1.319 -2.548,4.443c0.907,1.744 2.78,2.701 3.925,4.243c2.624,0.566 3.681,-1.152 4.714,-2.769c0.153,-1.391 -0.309,-2.5 -0.964,-4.162m-40.561,27.934c1.061,-1.752 1.986,-3.748 1.992,-5.779c0.009,-3.163 1.019,-5.82 2.518,-8.511c1.991,-3.578 1.733,-7.316 -0.141,-10.909c-1.256,-2.409 -1.725,-4.877 -1.157,-7.558c0.832,-3.927 -1.068,-5.778 -5.126,-5.063c-2.584,2.523 0.742,4.568 0.643,6.689c-1.04,2.467 -3.35,2.244 -5.143,2.916c-1.206,1.198 -1.512,2.636 -1.207,4.191c0.423,2.158 0.692,4.379 2.047,6.238c0.482,0.662 0.884,1.408 0.792,2.231c-0.591,5.319 2.673,9.759 3.345,14.788c0.053,0.4 0.424,0.662 1.437,0.767m73.64,189.056c0.098,-1.451 -0.228,-2.863 -0.968,-4.05c-1.968,-3.156 -3.441,-6.617 -4.776,-9.99c-1.642,-4.151 -3.514,-8.214 -5.161,-12.363c-2.807,-7.071 -5.104,-14.344 -8.35,-21.239c-0.394,-0.838 -0.532,-1.706 -0.67,-2.604c-0.731,-4.802 -2.625,-9.228 -4.488,-13.661c-0.315,-0.749 -0.754,-1.421 -1.51,-1.817c-0.676,-1.281 -2.2,-1.973 -2.46,-3.543c-1.508,-3.336 -1.986,-7.096 -4.49,-10.044c-1.065,-1.255 -1.564,-3.005 -2.329,-4.502c-1.654,-3.236 -2.1,-6.863 -3.74,-10.097c-0.838,-1.652 -2.088,-2.925 -3.056,-4.438c-2.211,-3.455 -4.392,-7.013 -7.144,-10.017c-3.164,-3.455 -5.111,-7.682 -8.037,-11.249c-0.37,-0.452 -0.643,-1.047 -0.774,-1.617c-0.942,-4.098 -2.772,-7.934 -3.23,-12.203c-0.231,-2.165 0.162,-3.765 1.691,-5.114c2.302,-2.031 3.484,-4.642 4.056,-7.559c0.826,-4.213 1.7,-8.426 2.29,-12.676c0.368,-2.65 1.324,-5.358 0.408,-8.045c-1.546,-4.536 -1.841,-9.494 -4.581,-13.631c-0.206,-0.311 -0.211,-0.756 -0.286,-1.049c0.488,-1.313 2.022,-1.519 2.436,-2.743c0.811,-2.412 -0.071,-4.763 -0.288,-7.138c-0.31,-3.389 -0.282,-6.86 -1.048,-10.144c-1.098,-4.709 -2.143,-9.343 -2.064,-14.239c0.051,-3.069 -0.921,-5.949 -3.95,-7.643c-1.081,-0.603 -1.615,-1.752 -2.168,-2.932c0.127,-0.92 0.264,-1.901 0.384,-2.766c-0.674,-1.656 -1.731,-2.599 -3.402,-2.769c-1.309,0.423 -2.446,0.988 -2.672,2.581c0.465,1.749 2.592,2.574 2.663,4.947c-0.449,2.054 -1.66,4.435 -0.596,6.977c1.665,3.98 1.561,8.245 1.944,12.415c0.153,1.662 1.062,3.305 0.269,5.216c-2.586,1.61 -3.774,4.294 -3.58,7.296c0.114,1.759 0.02,3.382 -0.43,5.018c-0.578,2.102 -0.559,4.15 0.141,6.222c0.227,0.669 0.811,1.465 -0.266,2.255c-1.791,-2.761 -4.052,-4.991 -5.181,-8.286c-1.388,-4.048 -2.853,-8.155 -3.86,-12.234c-1.237,-5.012 -3.072,-9.932 -3.575,-15.122c-0.393,-4.057 -2.114,-7.935 -1.573,-12.119c0.127,-0.989 0.019,-2.008 0.019,-3.012c1.776,-0.58 2.066,-2.993 4.206,-3.278c6.204,0.769 6.204,0.769 7.578,-0.137c-3.793,-2.396 -7.782,-1.908 -11.772,-1.408c-0.096,-1.337 0.256,-2.497 1.283,-3.424c0.591,-0.532 1.003,-1.191 1.114,-2.003c1.879,-2.406 3.208,-4.909 1.372,-7.795c0.855,-4.917 -0.001,-9.78 1.042,-14.512c1.733,-1.257 0.571,-3.743 2.403,-5.401c2.651,1.352 6.197,1.26 7.744,4.506c-0.524,1.319 -1.408,1.589 -2.223,1.975c-3.054,1.45 -4.69,4.492 -4.15,7.858c0.191,1.188 0.418,2.356 0.46,3.567c0.106,3.006 0.856,3.713 3.764,4.484c1.572,0.417 3.39,0.068 5.016,1.442c-1.527,1.368 -3.082,2.066 -4.961,2.064c-1.006,-0.001 -2.008,0.034 -2.937,0.5c-1.137,0.569 -2,1.343 -2.042,2.728c-0.04,1.383 0.707,2.3 1.883,2.813c1.282,0.561 2.628,0.976 3.951,1.437c2.623,0.916 4.823,0.005 6.484,-1.937c1.556,-1.822 1.755,-4.014 0.444,-6.149c-0.732,-1.191 -0.975,-2.459 -0.557,-3.745c0.751,-2.312 0.249,-4.374 -1.078,-6.269c-1.041,-1.483 -1.053,-2.922 -0.321,-4.525c0.576,-1.261 0.959,-2.541 0.962,-4.026c0.011,-4.54 1.339,-8.605 5.052,-11.578c-3.262,5.619 -2.831,12.172 -4.757,17.666c0.534,1.679 1.836,2.244 2.177,3.694c-0.208,1.469 -0.5,3.114 -0.252,4.853c0.622,4.356 1.442,8.796 -1.992,12.547c0.906,2.432 2.388,4.626 1.617,7.079c0.944,2.322 3.219,3.307 4.221,5.352c0.456,2.839 1.44,5.743 1.238,8.561c-0.23,3.211 0.438,6.01 2.005,8.572c1.675,2.742 1.893,5.618 1.783,8.654c-0.107,2.934 0.563,5.772 1.207,8.607c0.148,0.657 0.263,1.436 1.366,1.305c0.622,-0.863 0.418,-1.89 0.423,-2.858c0.022,-4.014 0.239,-8.046 -0.052,-12.038c-0.323,-4.412 1.364,-8.143 3.68,-11.497c2.191,-3.172 3.753,-6.589 5.378,-10.015c0.52,-1.095 0.983,-2.203 2.144,-2.678c1.164,-0.159 2.026,0.363 2.861,0.93c2.645,1.797 5.279,3.611 7.92,5.413c0.885,0.604 1.701,1.478 3.016,0.82c0.494,-0.787 0.348,-1.712 0.411,-2.596c0.391,0.438 0.783,0.878 1.173,1.316c1.411,4.564 2.423,9.279 5.536,13.148c1.138,1.416 1.51,3.266 2.133,4.957c0.175,0.474 0.112,0.992 -0.72,1.488c-3.009,-1.898 -3.362,-5.624 -5.331,-8.496c-0.899,-0.392 -1.847,-1.201 -3.065,-0.851c-0.377,2.674 0.231,5.363 -1.186,7.293c-2.79,1.557 -4.52,-2.945 -6.923,-0.518c-0.963,0.629 -0.414,2.382 -2.19,2.403c-1.153,-4.569 -5.831,-6.648 -7.337,-10.829c-2.799,0.369 -3.782,1.074 -4.224,3.414c-0.892,4.731 -1.577,9.584 -1.254,14.331c0.398,5.874 1.462,11.795 4.277,17.114c1.549,2.925 3.118,5.837 4.546,8.823c2.599,5.43 4.23,11.236 6.471,16.807c0.181,0.452 0.162,0.986 0.235,1.481c0.555,3.779 1.219,7.532 2.606,11.114c0.841,2.17 1.256,4.446 1.575,6.729c0.351,2.525 1.147,4.89 2.327,7.116c0.661,1.248 1.344,2.456 1.62,3.86c0.308,1.557 1.223,2.768 2.47,3.667c1.43,1.032 2.038,2.346 2.092,4.095c0.09,2.928 1.217,5.449 3.368,7.487c0.585,0.552 1.13,1.148 1.329,1.97c0.721,2.979 2.641,5.132 4.936,6.979c1.255,1.011 1.822,2.357 2.275,3.803c0.179,0.57 0.129,1.346 0.498,1.699c2.093,2.008 2.702,4.595 2.848,6.604c6.069,5.678 8.51,12.706 11.674,18.875c-0.509,1.87 -1.977,2.326 -2.664,3.59c-0.436,2.193 0.053,4.246 1.539,6.086c0.949,1.175 1.507,2.594 2.261,3.883c2.089,3.566 3.167,7.901 7.299,10.017c0.908,1.893 1.816,3.787 2.763,5.764c0.045,0.843 -0.829,1.571 -0.553,2.563c1.216,2.799 -0.294,6.658 3.155,8.312c0.825,4.311 0.38,8.618 3.27,12.012c2.679,10.666 4.928,21.459 8.507,31.865c1.126,3.272 1.908,7.044 5.275,9.155c1.636,1.388 3.271,2.774 4.907,4.161c0.393,0.619 0.786,1.237 1.18,1.857c-1.191,-0.166 -1.922,-1.025 -2.692,-1.811c-1.34,-1.369 -2.901,-2.437 -4.4,-3.404c-1.139,-0.088 -1.9,0.251 -2.327,1.18c0.414,5.512 -0.433,6.966 -4.742,8.125c-1.573,-0.369 -2.299,-1.622 -2.606,-3.001c-0.947,-4.232 -3.628,-8.021 -3.03,-12.664c0.364,-2.827 -1.158,-5.516 -1.191,-8.267c-0.074,-6.069 0.177,-12.118 -4.197,-16.804c0.741,-3.139 0.217,-5.819 -0.706,-8.343c-0.661,-1.811 -1.345,-3.526 -1.26,-5.494c0.062,-1.398 -0.386,-2.579 -2.078,-3.04c-0.36,0.102 -0.856,0.186 -1.306,0.375c-4.428,1.863 -8.755,4.007 -13.661,4.417c-1.078,0.09 -1.813,0.793 -2.104,2.258c1.255,2.834 2.633,5.915 3.623,9.173c1.305,4.305 3.073,8.471 4.641,12.696c0.422,1.138 0.564,2.32 0.722,3.52c0.233,1.766 0.183,3.689 1.323,5.169c1.613,2.096 2.276,4.408 2.265,7.004c-0.003,0.785 0.021,1.707 0.407,2.336c1.938,3.161 1.623,6.723 1.991,10.165c0.063,1.797 -0.213,3.609 0.237,5.439c0.991,1.067 1.996,2.146 2.904,3.125c1.035,-0.039 1.426,-1.128 2.328,-0.902c0.534,0.23 0.745,0.682 0.947,1.145c1.91,4.365 2.875,8.95 3.233,13.686c0.159,2.104 0.342,4.22 2.034,5.804c1.675,1.568 2.107,3.389 1.777,5.72c-0.248,1.754 -1.155,3.62 -0.303,5.432c0.362,0.05 0.587,0.151 0.745,0.088c0.366,-0.144 0.725,-0.333 1.042,-0.566c2.414,-1.764 2.731,-4.291 2.523,-7.005c0.002,-0.6 0.004,-1.202 0.006,-1.801c1.287,-0.58 1.403,-2.516 3.207,-2.691c1.408,0.967 1.224,2.441 0.682,3.69c-1.106,2.544 -1.458,5.137 -1.543,7.891c-0.148,4.831 -4.893,8.005 -10.163,7.005c-0.354,-1.219 1.58,-1.917 0.704,-3.36c-1.061,-0.408 -2.018,0.451 -3.073,0.524c-1.048,0.073 -1.976,-0.208 -2.895,-1.139c0.947,-6.934 -0.596,-13.869 -1.011,-21.139c-1.172,0.593 -0.961,1.452 -0.965,2.156c-0.025,4.315 -0.063,8.629 0.003,12.941c0.04,2.686 -0.599,5.325 -0.274,7.887c-0.998,0.901 -2.056,0.824 -3,0.585c-3.432,-0.871 -6.513,0.631 -9.677,1.385c-2.353,0.561 -2.232,2.75 -2.512,4.543c1.052,1.204 2.336,0.701 3.479,0.82c2.564,0.271 5.209,-0.573 7.712,0.559c-4.262,0.019 -8.536,0.316 -12.511,-0.104c-0.955,-1.869 -0.048,-3.031 0.13,-4.371c2.5,-2.106 4.935,-4.34 8.621,-4.089c0.68,0.046 1.38,-0.224 2.074,-0.328c3.408,-0.51 5.188,-2.357 5.275,-5.79c0.201,-8.022 0.013,-16.011 -1.4,-23.957c-0.751,-4.226 -0.796,-8.573 -1.467,-12.816c-1.003,-6.332 -2.734,-12.502 -4.711,-18.604c-1.508,-4.657 -3.014,-9.319 -4.343,-14.029c-0.596,-2.113 -1.842,-4.03 -1.894,-6.298" style="fill:#cacaca;fill-rule:nonzero;"/><path d="M289.948,705.828c-0.606,-0.035 -1.206,-0.083 -1.563,-0.687c-0.271,-0.604 -0.148,-1.192 0.173,-1.716c0.971,-1.578 0.815,-3.221 0.429,-4.924c-0.485,-2.139 -0.917,-4.291 -1.304,-6.451c-0.338,-1.892 -0.314,-3.766 0.743,-5.624c1.299,0.228 1.155,2.237 2.848,2.043c0.78,-1.155 0.626,-2.64 0.364,-3.896c-1.016,-4.872 -0.363,-9.476 1.781,-13.842c-0.376,-1.435 -1.365,-2.602 -1.072,-4.092c3.673,3.796 2.139,8.303 1.353,12.49c-0.44,2.342 -1.105,4.71 -1.226,7.061c-0.292,5.629 -1.306,11.131 -2.259,16.654c-0.17,0.981 -0.182,1.989 -0.267,2.984" style="fill:#bebebe;fill-rule:nonzero;"/><path d="M291.106,651.594c-0.393,-0.619 -0.786,-1.238 -1.179,-1.857c4.944,2.51 6.011,7.542 3.808,11.473c-0.963,1.717 -1.033,3.599 -1.383,5.438c-1.012,-0.836 -0.168,-2.056 -0.622,-3.008c0.207,-1.971 -1.843,-2.786 -2.256,-4.264c-0.22,-1.612 0.737,-2.317 1.742,-3.052c0.755,-0.549 1.932,-0.99 1.109,-2.329c-0.011,-0.664 -0.105,-1.3 -0.614,-1.795c-0.202,-0.202 -0.403,-0.404 -0.605,-0.606" style="fill:#bebebe;fill-rule:nonzero;"/><path d="M214.539,365.785c-0.049,0.799 0.042,1.637 -0.17,2.388c-0.688,2.417 -0.478,4.788 0.298,7.102c0.809,2.408 1.157,4.837 1.114,7.378c-0.051,2.974 1.172,5.428 3.555,7.262c0.037,0.175 0.071,0.35 0.103,0.526c-0.021,0.624 -0.042,1.249 -0.062,1.873c-2.305,-1.378 -3.134,-3.791 -4.221,-6.022c0.036,-3.612 -0.611,-7.087 -1.458,-10.614c-0.776,-3.231 -1.07,-6.739 0.841,-9.893" style="fill:#b5b5b5;fill-rule:nonzero;"/><path d="M259.525,561.47c-0.894,0.244 -1.086,0.977 -0.844,1.446c1.723,3.33 1.056,7.355 2.878,10.819c2.688,-2.748 2.338,-5.284 -0.897,-9.069c-0.589,-1.077 0.183,-2.54 -1.137,-3.196m11.713,43.086c-2.89,-3.394 -2.445,-7.701 -3.27,-12.012c-3.449,-1.653 -1.939,-5.513 -3.155,-8.312c-0.276,-0.993 0.598,-1.72 0.553,-2.563c-0.947,-1.977 -1.855,-3.871 -2.763,-5.765c-4.132,-2.116 -5.21,-6.451 -7.299,-10.017c-0.754,-1.288 -1.312,-2.706 -2.261,-3.882c-1.486,-1.84 -1.975,-3.893 -1.538,-6.086c0.686,-1.264 2.154,-1.72 2.663,-3.59c-3.164,-6.169 -5.605,-13.197 -11.674,-18.875c-0.146,-2.009 -0.755,-4.596 -2.848,-6.603c-0.369,-0.355 -0.319,-1.131 -0.498,-1.701c-0.453,-1.446 -1.02,-2.792 -2.275,-3.802c-2.295,-1.847 -4.215,-4.001 -4.936,-6.98c-0.199,-0.821 -0.744,-1.416 -1.329,-1.969c-2.151,-2.038 -3.278,-4.559 -3.368,-7.488c-0.054,-1.748 -0.662,-3.062 -2.092,-4.094c-1.247,-0.899 -2.162,-2.11 -2.469,-3.667c-0.277,-1.404 -0.96,-2.612 -1.621,-3.86c-1.18,-2.226 -1.976,-4.591 -2.327,-7.116c-0.319,-2.283 -0.734,-4.56 -1.575,-6.729c-1.387,-3.582 -2.051,-7.335 -2.606,-11.113c-0.073,-0.496 -0.054,-1.03 -0.235,-1.482c-2.241,-5.571 -3.872,-11.377 -6.471,-16.807c-1.428,-2.986 -2.997,-5.898 -4.546,-8.823c-2.815,-5.319 -3.879,-11.241 -4.277,-17.115c-0.322,-4.746 0.362,-9.599 1.254,-14.33c0.442,-2.341 1.425,-3.045 4.224,-3.414c1.506,4.181 6.184,6.26 7.337,10.829c1.776,-0.022 1.227,-1.774 2.19,-2.403c2.404,-2.427 4.133,2.075 6.923,0.518c1.417,-1.93 0.809,-4.619 1.186,-7.294c1.218,-0.349 2.166,0.46 3.065,0.852c1.969,2.872 2.322,6.598 5.331,8.495c0.832,-0.494 0.895,-1.013 0.72,-1.487c-0.623,-1.692 -0.995,-3.54 -2.133,-4.957c-3.113,-3.87 -4.125,-8.585 -5.536,-13.148c1.931,1.326 3.391,3.233 4.497,5.123c3.767,6.443 7.791,12.835 8.58,20.557c0.286,2.799 0.394,5.607 0.028,8.373c-0.396,2.99 -2.363,5.242 -4.294,7.412c-1.26,1.417 -2.669,2.702 -4.017,4.04c-0.783,0.777 -1.608,1.522 -1.76,2.707c-1.612,-3.574 -0.327,-5.727 3.311,-8.212c3.14,-2.147 4.051,-5.063 4.068,-8.518c0.004,-0.739 -0.101,-1.68 -1.304,-1.599c-1.109,0.835 -0.297,2.387 -1.665,3.656c-1.333,0.486 -2.324,2.064 -3.552,3.532c-2.914,3.482 -4.415,8.233 -8.995,10.091c-0.468,2.266 -0.372,4.338 -0.038,6.437c0.657,4.15 1.338,8.286 1.639,12.501c0.204,2.877 0.118,5.842 0.861,8.644c1.052,3.965 1.955,7.973 3.437,11.826c1.295,3.366 2.342,6.828 3.449,10.264c0.799,2.477 1.107,5.219 2.379,7.412c1.524,2.624 2.874,5.256 3.848,8.116c0.234,0.691 0.386,1.629 1.471,1.587c0.768,-0.489 0.826,-1.267 0.489,-1.868c-1.331,-2.378 -1.109,-4.812 -0.511,-7.305c0.214,-0.892 0.13,-1.798 -0.107,-2.683c-0.933,-3.47 -0.821,-7.192 -2.541,-10.48c-0.217,-0.416 -0.178,-0.979 -0.205,-1.478c-0.261,-4.892 -0.438,-9.786 -2.316,-14.436c-0.557,-1.38 -0.542,-2.946 -0.788,-4.422c-0.506,-3.03 -0.174,-6.248 -1.889,-9.043c-0.296,-0.483 -0.42,-1.161 -0.392,-1.738c0.201,-4.123 -0.54,-8.192 -0.649,-12.296c1.128,2.71 1.209,5.642 1.685,8.476c0.808,4.822 1.413,9.683 1.963,14.542c0.262,2.322 1.556,4.299 1.863,6.591c1.075,8.025 2.592,15.975 4.081,23.93c0.13,0.69 0.164,1.392 0.642,1.96c0.916,2.575 0.642,5.41 1.468,7.934c1.575,4.817 2.485,9.814 4.405,14.552c1.692,4.176 3.73,8.176 5.516,12.298c1.035,2.388 2.869,4.278 4.055,6.619c3.067,6.051 6.415,11.968 9.682,17.907c1.975,3.589 2.303,7.571 4.169,11.095c0.977,1.845 0.913,4.075 0.836,6.2c-0.131,3.621 -0.082,7.221 1.454,10.623c0.422,0.933 0.419,1.955 0.386,2.96c-0.071,2.141 0.352,4.188 1.156,6.159c0.881,2.164 1.342,4.402 1.261,6.744" style="fill:#b5b5b5;fill-rule:nonzero;"/><path d="M202.696,386.236c-0.044,1.283 0.543,2.016 1.924,2.175c0.58,-0.406 1.174,-0.769 1.16,-1.605c-1.413,-1.736 -1.413,-1.736 -3.084,-0.57m5.654,-20.958c-2.319,-1.602 -4.464,-1.605 -6.055,-0.089c-1.17,1.115 -1.251,2.482 -0.684,3.865c0.601,1.465 1.819,1.717 4.395,1.078c1.968,-2.444 1.968,-2.444 2.344,-4.854m6.806,21.014c1.088,2.232 1.915,4.644 4.22,6.022c1.012,1.379 2.022,2.758 3.033,4.135c-0.063,0.885 0.083,1.809 -0.411,2.596c-1.315,0.658 -2.131,-0.215 -3.016,-0.819c-2.641,-1.802 -5.275,-3.617 -7.92,-5.413c-0.835,-0.567 -1.697,-1.09 -2.861,-0.929c-1.161,0.475 -1.624,1.582 -2.144,2.678c-1.625,3.424 -3.187,6.842 -5.378,10.014c-2.316,3.354 -4.003,7.084 -3.68,11.497c0.291,3.993 0.074,8.023 0.052,12.039c-0.005,0.967 0.199,1.994 -0.423,2.857c-1.103,0.131 -1.218,-0.648 -1.366,-1.306c-0.644,-2.833 -1.314,-5.673 -1.207,-8.606c0.11,-3.037 -0.108,-5.913 -1.783,-8.654c-1.567,-2.562 -2.235,-5.362 -2.005,-8.571c0.202,-2.819 -0.782,-5.723 -1.238,-8.562c-1.002,-2.045 -3.277,-3.03 -4.221,-5.351c0.771,-2.453 -0.711,-4.649 -1.617,-7.08c3.434,-3.751 2.614,-8.191 1.992,-12.547c-0.248,-1.738 0.044,-3.384 0.252,-4.854c-0.341,-1.45 -1.643,-2.015 -2.177,-3.693c1.926,-5.494 1.495,-12.047 4.757,-17.665l1.207,-2.408c2.458,-4.11 6.166,-6.336 10.76,-7.408c2.441,-0.57 4.465,-1.851 4.915,-4.655c1.222,-2.519 2.663,-4.909 4.216,-7.235c0.204,0.002 0.408,0.003 0.611,0.004c-0.072,2.643 -1.899,4.596 -2.714,6.925c-1.366,3.902 -4.096,5.871 -7.91,7.028c-2.427,0.736 -5.261,1.337 -6.758,3.559c-1.766,2.621 -3.398,5.399 -3.789,8.73c-0.377,3.223 -0.146,6.573 -2.011,9.55c-0.798,1.273 -0.193,2.738 0.658,3.954c0.567,0.809 1.4,1.482 1.283,2.871c-0.37,0.768 -0.843,1.75 -1.356,2.815c2.607,5.314 0.198,10.247 -1.157,15.778c0.614,1.917 -0.198,4.504 0.635,6.876c1.235,1.381 3.153,2.052 3.598,4.017c0.821,3.609 1.516,7.234 1.008,10.963c-0.328,2.399 0.231,3.478 2.636,4.835c1.518,-0.664 2.925,-1.493 3.893,-3.035c2.84,-4.526 4.458,-9.566 6.288,-14.269c-0.48,-3.078 -3.625,-4.62 -3.652,-7.266c0.417,-1.558 1.972,-1.617 2.193,-2.712c-0.039,-0.57 -0.352,-0.834 -0.66,-1.09c-3.487,-2.873 -3.343,-4.909 0.522,-7.348c0.649,-0.41 1.548,-0.616 1.422,-1.813c-1.498,-1.24 -3.835,-1.81 -4.198,-4.266c0.304,-4.484 3.146,-5.976 6.881,-5.727c1.869,0.124 3.754,0.022 5.747,0.022c0.025,-1.34 -0.793,-2.379 -0.695,-3.616c0.506,-6.35 3.795,-11.758 5.9,-17.564c0.127,-0.352 0.484,-0.638 0.774,-0.912c1.036,-0.983 1.878,-2.084 2.306,-3.472c0.244,-0.794 0.698,-1.471 1.417,-1.886c2.013,-1.159 3.168,-3.045 4.232,-4.984c0.842,-1.536 1.944,-2.79 3.402,-3.745c-0.131,0.377 -0.216,0.775 -0.398,1.124c-2.547,4.84 -7.3,8.177 -9.189,13.475c-0.123,0.349 -0.536,0.587 -0.774,0.906c-1.819,2.447 -2.854,5.474 -3.199,8.221c-0.34,2.695 -0.576,5.487 -0.91,8.232c-1.292,3.033 -1.076,6.456 -2.434,9.469c-1.045,2.316 -0.785,5.139 -2.447,6.98c-2.169,0.944 -4.063,-0.789 -5.89,0.17c-1.655,0.868 -3.54,1.591 -3.511,3.856c0.444,1.151 1.257,1.742 2.226,2.062c3.143,1.039 5.713,-1.158 8.577,-1.721c1.169,1.214 1.348,2.778 1.978,4.114c0.455,0.967 0.367,2.209 1.508,2.808" style="fill:#cacaca;fill-rule:nonzero;"/><path d="M169.931,426.081c0.104,-1.54 -0.297,-2.913 -1.013,-4.306c-1.331,-2.584 -1.799,-5.488 -2.694,-8.235c-2.176,-6.681 -3.089,-13.627 -4.035,-20.552c-0.668,-4.898 -0.093,-9.751 1.095,-14.533c0.809,-0.604 1.616,-1.209 2.423,-1.813c-0.112,0.812 -0.524,1.47 -1.114,2.004c-1.028,0.926 -1.378,2.086 -1.283,3.422c-0.004,1.609 -0.008,3.216 -0.012,4.823c0,1.005 0.109,2.024 -0.02,3.012c-0.54,4.186 1.181,8.063 1.574,12.119c0.503,5.191 2.338,10.111 3.575,15.122c1.007,4.081 2.472,8.187 3.86,12.235c1.129,3.295 3.389,5.526 5.181,8.286c1.077,-0.79 0.493,-1.586 0.267,-2.255c-0.702,-2.073 -0.719,-4.12 -0.141,-6.223c0.449,-1.635 0.544,-3.259 0.429,-5.018c-0.195,-3.001 0.994,-5.685 3.58,-7.295c0.794,-1.91 -0.117,-3.555 -0.269,-5.216c-0.383,-4.171 -0.279,-8.434 -1.944,-12.415c-1.063,-2.542 0.146,-4.924 0.597,-6.978c-0.073,-2.373 -2.198,-3.196 -2.664,-4.946c0.226,-1.594 1.363,-2.158 2.673,-2.58c1.669,0.17 2.727,1.111 3.4,2.768c-0.119,0.864 -0.255,1.846 -0.383,2.766c0.553,1.18 1.087,2.328 2.168,2.933c3.028,1.693 4.001,4.573 3.951,7.642c-0.08,4.897 0.966,9.529 2.063,14.24c0.765,3.283 0.738,6.753 1.047,10.143c0.218,2.376 1.1,4.726 0.288,7.138c-0.413,1.224 -1.946,1.429 -2.434,2.744c0.074,0.292 0.079,0.737 0.285,1.048c2.74,4.137 3.034,9.095 4.581,13.631c0.916,2.686 -0.04,5.395 -0.409,8.045c-0.589,4.25 -1.463,8.462 -2.29,12.675c-0.572,2.918 -1.754,5.53 -4.055,7.561c-1.53,1.348 -1.923,2.947 -1.69,5.114c0.457,4.267 2.287,8.103 3.228,12.202c0.132,0.57 0.405,1.166 0.774,1.617c2.928,3.566 4.875,7.794 8.038,11.249c2.752,3.004 4.933,6.562 7.145,10.017c0.967,1.513 2.218,2.785 3.055,4.437c1.64,3.236 2.085,6.862 3.74,10.098c0.764,1.496 1.265,3.248 2.33,4.502c2.504,2.948 2.981,6.708 4.489,10.044c-2.012,-2.093 -4.025,-4.17 -5.015,-7.014c-0.291,-0.835 -0.773,-1.663 -1.359,-2.325c-2.016,-2.269 -2.994,-4.992 -3.404,-7.895c-0.454,-3.209 -2.286,-5.74 -3.93,-8.306c-2.05,-3.198 -4.718,-6.004 -6.727,-9.224c-3.239,-5.187 -7.355,-9.79 -10.183,-15.225c-2.97,-5.708 -5.387,-11.635 -6.191,-18.109c-0.147,-1.18 -0.582,-2.331 -0.95,-3.476c-0.43,-1.345 -0.857,-2.683 -0.787,-4.118c0.084,-1.739 -0.26,-3.371 -0.997,-4.961c-1.214,-2.621 -0.651,-5.549 -1.33,-8.284c-0.655,-2.635 -0.776,-5.355 -0.684,-8.075c0.037,-1.105 0.099,-2.261 -0.354,-3.275c-2.352,-5.261 -2.89,-11.178 -5.937,-16.189c-0.882,-1.45 -1.714,-2.977 -1.538,-4.796" style="fill:#b5b5b5;fill-rule:nonzero;"/><path d="M291.106,651.594c0.202,0.202 0.403,0.404 0.605,0.606c-0.412,2.363 -2.947,1.727 -4.177,2.986c-1.156,3.165 -0.979,3.019 1.001,11.527c0.714,0.819 1.795,-0.256 2.558,0.552c0.017,1.033 -1.338,1.158 -1.553,2.088c-0.077,0.691 -0.24,1.385 -0.212,2.07c0.091,2.244 -0.9,4.149 -2.138,5.81c-1.219,1.637 -2.997,2.864 -2.995,5.361c-1.512,-0.775 -1.76,-2.348 -3.67,-2.357c-1.943,0.814 -3.006,2.669 -3.273,5.111c-0.002,0.601 -0.003,1.201 -0.006,1.802c-0.679,0.501 -0.92,1.653 -2.509,1.34c-0.515,-2.212 -1.35,-4.531 -2.563,-6.693c-1.152,-2.055 -1.736,-4.273 -1.552,-6.649c0.166,-2.14 -0.308,-4.215 -0.837,-6.238c-0.739,-2.815 -1.481,-5.587 -1.751,-8.52c-0.189,-2.057 -0.869,-4.103 -1.362,-6.141c-0.339,-1.4 -0.924,-2.87 -2.348,-3.765c-3.193,0.136 -2.476,2.831 -2.948,4.536c-0.612,0.387 -1.108,0.219 -1.598,0.164c-0.367,-3.442 -0.052,-7.003 -1.99,-10.165c-0.386,-0.629 -0.411,-1.55 -0.407,-2.336c0.011,-2.595 -0.651,-4.908 -2.264,-7.003c-1.14,-1.481 -1.09,-3.404 -1.323,-5.171c-0.159,-1.199 -0.3,-2.382 -0.723,-3.518c-1.568,-4.226 -3.335,-8.392 -4.642,-12.697c-0.989,-3.258 -2.366,-6.34 -3.622,-9.172c0.292,-1.467 1.025,-2.169 2.105,-2.259c4.905,-0.41 9.233,-2.553 13.659,-4.417c0.452,-0.19 0.946,-0.274 1.308,-0.375c1.691,0.461 2.138,1.641 2.077,3.039c-0.085,1.968 0.599,3.684 1.261,5.495c0.921,2.524 1.446,5.204 0.705,8.344c4.373,4.685 4.124,10.733 4.197,16.802c0.033,2.752 1.556,5.441 1.192,8.268c-0.598,4.642 2.083,8.431 3.028,12.664c0.309,1.379 1.034,2.633 2.606,3.002c4.31,-1.16 5.158,-2.615 4.743,-8.126c0.428,-0.929 1.189,-1.268 2.327,-1.181c1.499,0.968 3.061,2.035 4.401,3.405c0.768,0.786 1.501,1.644 2.69,1.811" style="fill:#cacaca;fill-rule:nonzero;"/><path d="M292.325,653.995c0.823,1.339 -0.354,1.78 -1.109,2.33c-1.006,0.733 -1.962,1.44 -1.742,3.051c0.413,1.479 2.463,2.293 2.256,4.264c-2.493,-1.413 -4.616,-3.016 -3.16,-6.613c0.915,-1.167 2.447,-1.967 3.755,-3.032" style="fill:#cacaca;fill-rule:nonzero;"/><path d="M177.876,363.056c-1.049,-0.811 -0.219,-2.574 -1.853,-3.035c-1.071,1.25 -0.737,2.881 -1.32,4.231c-1.063,2.463 -0.601,3.943 1.07,5.004c1.797,1.14 3.261,0.903 5.384,-0.922c0.526,-2.656 -1.454,-3.834 -3.281,-5.278m126.358,-193.482c-3.743,1.772 -12.67,15.263 -13.21,19.213c6.261,-4.778 10.293,-11.339 13.21,-19.213m-93.909,113.611c-0.72,0.11 -1.254,0.552 -1.848,0.935c-3.888,2.503 -6.093,6.554 -9.092,9.869c-1.517,1.675 -1.537,3.655 -0.215,5.535c1.374,1.955 2.977,3.747 4.183,5.243c4.02,2.029 6.955,1.169 9.389,-1.961c0.978,-1.258 2.143,-2.371 3.237,-3.567c3.321,-1.097 3.203,-1.201 5.843,-4.189c1.561,-1.767 2.824,-3.593 3.592,-5.811c0.432,-1.245 1.388,-2.17 2.196,-3.196c1.477,-1.877 3.305,-3.485 4.435,-5.636c2.23,-4.251 2.96,-9.069 5.118,-13.376c0.808,-1.61 1.043,-3.653 0.878,-5.592c-0.121,-1.437 -0.402,-2.778 -1.874,-3.412c-2.415,1.072 -6.592,5.232 -7.757,7.673c-0.914,0.488 -1.426,1.345 -2.04,2.133c-2.076,2.655 -3.607,5.821 -6.494,7.735c-3.418,2.263 -6.531,4.873 -9.551,7.617m-25.966,-63.268c-1.455,-1.227 -2.04,-2.907 -1.439,-4.592c1.38,-3.876 1.583,-7.854 1.477,-11.875c-0.237,-9.024 4.448,-15.086 11.241,-20.404c4.906,-3.84 10.536,-4.755 16.207,-5.784c3.469,-0.628 7.008,0.376 10.397,1.214c2.894,0.715 5.912,1.085 8.589,2.661c6.762,3.979 11.347,9.418 13.237,17.257c1.529,6.346 0.996,12.562 -0.15,18.751c-0.903,4.879 -0.41,9.367 1.905,13.673c0.81,1.509 1.589,3.012 2.185,4.62c0.452,1.222 1.232,2.095 3.062,1.642c1.983,-1.932 3.111,-4.803 4.973,-7.146c4.128,-5.194 8.327,-10.241 14.081,-13.82c4.941,-3.073 9.412,-6.732 12.701,-11.691c1.061,-1.6 1.374,-3.297 1.675,-5.066c0.977,-5.739 3.441,-10.822 6.766,-15.54c1.15,-1.633 2.271,-3.292 3.303,-5.001c2.136,-3.542 5.14,-6.422 7.442,-9.837c0.268,-0.398 0.752,-0.651 1.136,-0.972c0.278,-0.112 0.619,-0.155 0.821,-0.346c5.183,-4.917 10.051,-10.142 13.165,-16.63c1.09,-2.272 2.369,-4.611 2.82,-6.978c-0.794,-1.473 -1.943,-1.926 -3.166,-1.886c-4.029,0.131 -7.995,-0.901 -11.978,-0.768c-3.461,0.116 -6.773,-0.377 -10.131,-0.943c-2.056,-0.346 -4.2,-0.267 -6.034,-1.366c-0.466,-2.511 0.343,-3.783 2.906,-4.108c2.873,-0.365 5.734,-0.948 8.67,-0.745c1.293,0.089 2.746,0.294 3.879,-0.166c3.206,-1.304 6.504,-0.953 9.792,-1.02c1.53,-0.03 3.027,-0.118 4.012,-1.491c0.525,-1.162 0.378,-2.26 -0.383,-3.151c-1.717,-2.01 -1.811,-4.37 -1.682,-6.809c1.347,0.699 1.884,2.022 2.547,3.263c1.767,3.305 4.39,3.657 6.868,0.803c1.376,-1.585 2.503,-3.386 3.738,-5.093c0.738,-1.02 1.363,-2.152 2.859,-2.911c0.381,2.074 0.504,3.823 -0.56,5.439c-0.789,1.197 -1.273,2.509 -1.648,3.862c-0.626,2.266 -2.033,4.136 -3.064,6.194c-0.518,1.037 -1.373,1.735 -2.905,1.532c-0.747,-0.451 -1.68,-1.015 -2.606,-1.574c-0.554,0.03 -1.067,-0.012 -1.546,0.096c-6.867,1.54 -13.837,2.117 -20.855,2.252c-1.406,0.027 -2.821,-0.064 -4.217,0.063c-1.613,0.145 -3.135,0.574 -3.569,2.385c0.546,0.803 1.218,1.036 1.927,1.086c5.394,0.371 10.728,1.458 16.167,1.302c1.401,-0.041 2.815,-0.111 4.201,0.229c2.085,0.509 4.157,0.351 6.274,0.108c2.573,-0.296 5.127,-0.01 7.648,1.188c0.616,4.311 -0.291,8.32 -2.679,11.54c-1.944,2.624 -3.611,5.275 -4.76,8.273c-0.98,2.556 -3.065,4.183 -4.834,6.069c-3.691,3.937 -5.578,9.211 -9.686,12.86c-1.165,1.034 -1.865,2.609 -2.363,4.161c-2.563,7.98 -6.627,14.989 -13.373,20.556c-1.134,4.128 -2.624,8.243 -5.166,12.106c-2.119,3.218 -4.284,6.428 -7.161,8.766c-3.964,3.219 -7.75,6.659 -11.806,9.765c-1.118,0.856 -2.351,1.754 -2.875,3.041c-1.335,3.267 -3.215,6.241 -4.74,9.398c-1.297,2.684 -1.285,5.112 1.304,7.283c1.766,1.478 1.868,3.011 0.629,4.813c-2.266,3.297 -4.275,6.803 -7.358,9.479c-1.998,1.735 -3.507,3.858 -4.635,6.248c-0.566,1.202 -1.296,2.273 -2.396,3.043c-3.896,2.724 -6.484,6.509 -8.661,10.63c-0.562,1.063 -0.992,2.216 -1.895,3.058c-3.276,3.048 -5.63,6.798 -7.862,10.6c-1.461,2.49 -3.379,4.456 -5.603,6.202c0.171,-1.316 1.182,-2.055 2.014,-2.912c0.907,-0.938 1.844,-1.83 2.465,-3.018c2.556,-4.888 5.047,-9.816 8.628,-14.085c0.831,-0.99 1.462,-2.143 2.028,-3.334c1.651,-3.477 3.664,-6.693 6.974,-8.883c0.936,-0.62 1.675,-1.449 2.159,-2.468c1.223,-2.563 2.846,-4.811 4.841,-6.852c1.225,-1.253 2.395,-2.735 1.889,-4.597c-0.844,-1.081 -2.321,-0.696 -2.908,-1.817c-0.041,-1.891 -0.041,-1.891 2.646,-4.602c-0.863,-2.832 -0.882,-5.997 -0.865,-9.41c-4.234,2.645 -8.971,8.808 -9.091,11.536c1.159,1.86 4.451,2.401 3.626,5.639c-0.396,0.327 -0.787,0.635 -1.16,0.962c-2.317,2.029 -4.231,4.217 -4.006,7.643c0.122,1.858 -0.969,3.428 -1.614,4.749c-1.187,1.262 -2.68,1.089 -3.82,1.87c-0.959,1.462 -1.905,2.999 -2.945,4.47c-2.194,3.105 -4.59,6.054 -6.64,9.274c-1.769,2.778 -3.659,5.499 -6.09,7.818c-2.076,1.981 -4.73,3.448 -5.913,6.3c-0.166,0.402 -0.707,0.748 -1.152,0.914c-1.282,0.476 -2.081,1.493 -3.061,2.35c-1.834,1.607 -3.668,3.443 -6.337,3.073c-1.539,-1.538 -2.55,-3.143 -3.323,-4.685c-1.788,-1.412 -3.4,-1.063 -5.24,-0.412c-3.391,1.199 -6.037,3.485 -8.827,5.353c-1.724,3.99 -5.007,9.531 -8.754,9.536c-1.382,2.904 -2.025,5.79 -1.641,9.217c0.427,3.811 2.115,7.876 -0.608,11.667c-0.702,0.979 -0.117,2.233 0.969,2.829c1.135,0.625 2.37,1.098 3.607,1.494c1.132,0.363 2.272,0.098 3.013,-0.852c1.716,-2.205 3.436,-4.421 4.953,-6.763c0.748,-1.154 1.133,-2.573 0.634,-4.046c-0.233,-0.685 -0.238,-1.467 0.177,-2.045c1.072,-1.492 1.266,-3.342 2.152,-5.185c2.719,-0.032 4.967,-1.515 6.951,-3c1.575,1.015 1.028,2.766 2.197,3.572c2.598,0.421 3.619,-0.111 5.258,-2.782c1.574,-2.562 2.944,-5.25 4.76,-7.663c-0.004,0.601 -0.007,1.203 -0.009,1.804c-1.554,2.326 -2.995,4.717 -4.218,7.235c-0.731,0.402 -1.088,1.137 -1.588,1.753c-1.141,1.404 -2.672,2.026 -4.456,2.048c-4.777,0.062 -8.802,3.508 -9.63,8.262l-1.207,2.408c-3.713,2.973 -5.041,7.037 -5.051,11.577c-0.004,1.484 -0.387,2.766 -0.963,4.027c-0.732,1.602 -0.72,3.041 0.321,4.525c1.327,1.894 1.829,3.956 1.078,6.268c-0.418,1.286 -0.175,2.554 0.558,3.746c1.31,2.133 1.112,4.326 -0.446,6.148c-1.659,1.943 -3.861,2.852 -6.482,1.938c-1.325,-0.463 -2.671,-0.878 -3.952,-1.438c-1.176,-0.514 -1.923,-1.43 -1.883,-2.813c0.042,-1.386 0.906,-2.159 2.042,-2.729c0.928,-0.465 1.931,-0.5 2.937,-0.499c1.879,0.002 3.434,-0.695 4.961,-2.064c-1.626,-1.374 -3.444,-1.026 -5.016,-1.442c-2.907,-0.77 -3.658,-1.479 -3.764,-4.484c-0.042,-1.211 -0.269,-2.379 -0.459,-3.567c-0.541,-3.366 1.095,-6.408 4.149,-7.858c0.814,-0.386 1.699,-0.655 2.223,-1.975c-1.547,-3.247 -5.093,-3.154 -7.744,-4.506c-1.832,1.658 -0.669,4.143 -2.403,5.401c-0.005,-1.816 -0.01,-3.631 -0.015,-5.447c-0.109,-3.655 0.307,-7.329 -0.514,-10.961c-0.361,-1.593 0.405,-3.122 0.528,-4.697c0.992,-0.59 0.996,-1.592 1.237,-2.583c1.059,-4.341 0.771,-8.721 0.586,-13.106c1.861,2.129 0.639,5.125 1.826,8.048c2.096,-2.871 4.227,-4.915 5.105,-7.723c0.553,-1.768 1.353,-3.317 2.539,-4.696c1.443,-1.676 1.628,-3.6 1.102,-5.641c-0.276,-1.064 -0.679,-2.093 -1.002,-3.145c-0.901,-2.939 -0.648,-3.81 1.948,-5.543c2.264,-1.511 4.373,-3.158 5.956,-5.404c1.523,-0.889 2.473,-2.348 3.614,-3.619c1.853,-1.865 4.508,-2.422 6.485,-4.24c3.132,-2.878 6.374,-5.704 10.422,-7.405c2.02,-0.848 3.894,-2.062 4.378,-4.576c0.216,-1.118 1.21,-1.821 2.062,-2.511c1.396,-1.132 2.889,-2.15 4.258,-3.314c1.279,-1.087 2.76,-2.052 3.145,-3.88c1.094,-1.79 3.107,-2.467 4.578,-3.776c3.468,-3.085 7.415,-5.435 11.335,-7.841c0.681,-0.419 1.331,-0.925 2.165,-0.98c5.566,-0.37 7.85,-4.466 10.211,-8.821c-1.966,-2.845 -2.983,-6.177 -5.517,-8.589c-0.74,-0.703 -1.377,-1.548 -1.486,-2.555c-0.199,-1.846 -1.012,-3.442 -1.758,-5.078c-0.926,-2.034 -1.023,-3.999 0.162,-6.024c1.135,-1.94 1.468,-4.1 1.432,-6.362c-0.071,-4.405 -0.025,-8.812 -0.021,-13.218c0.001,-1.921 -0.204,-3.792 -1.202,-5.492c-1.369,-2.458 -2.369,-4.939 -4.589,-7.096c-3.127,-3.038 -6.646,-5.136 -10.409,-6.932c-3.445,-1.644 -7.158,-2.813 -11.073,-2.181c-2.387,0.386 -4.791,0.398 -7.17,0.716c-1.579,0.212 -3.218,-0.299 -4.745,0.42c-5.867,2.285 -11.226,5.208 -14.146,11.303c-0.171,0.998 0.602,2.093 -0.218,3.409c-3.473,1.253 -4.314,4.042 -3.445,7.617c0.047,0.194 0.079,0.395 0.084,0.594c0.043,1.597 -0.515,3.147 -0.235,4.781c0.336,1.958 2.649,2.068 3.296,3.674c-0.081,1.703 -1.231,2.085 -2.589,2.424c-2.19,0.546 -2.815,1.493 -2.568,3.645c0.09,0.79 0.352,1.56 0.536,2.339l-0.05,0.048Z" style="fill:#cacaca;fill-rule:nonzero;"/><path d="M174.06,427.564c-1.012,-0.105 -1.384,-0.367 -1.438,-0.767c-0.672,-5.029 -3.935,-9.469 -3.344,-14.788c0.092,-0.823 -0.311,-1.569 -0.793,-2.231c-1.355,-1.859 -1.623,-4.08 -2.046,-6.238c-0.305,-1.555 0.001,-2.993 1.208,-4.191c1.792,-0.672 4.103,-0.449 5.142,-2.916c0.099,-2.121 -3.227,-4.166 -0.646,-6.689c4.061,-0.715 5.961,1.136 5.129,5.063c-0.568,2.681 -0.099,5.149 1.157,7.558c1.874,3.593 2.132,7.331 0.141,10.909c-1.499,2.691 -2.509,5.348 -2.518,8.511c-0.006,2.031 -0.931,4.027 -1.992,5.779" style="fill:#cacaca;fill-rule:nonzero;"/><path d="M259.779,655.184c0.489,0.055 0.985,0.223 1.597,-0.164c0.471,-1.705 -0.244,-4.4 2.948,-4.536c1.424,0.895 2.01,2.365 2.348,3.765c0.493,2.038 1.173,4.084 1.362,6.141c0.27,2.933 1.012,5.705 1.75,8.52c0.53,2.023 1.004,4.098 0.838,6.238c-0.184,2.376 0.4,4.594 1.552,6.649c1.213,2.162 2.048,4.481 2.563,6.693c1.589,0.313 1.829,-0.839 2.509,-1.34c0.208,2.714 -0.11,5.242 -2.524,7.005c-0.316,0.232 -0.675,0.422 -1.041,0.566c-0.158,0.063 -0.382,-0.039 -0.745,-0.088c-0.851,-1.813 0.054,-3.677 0.303,-5.433c0.329,-2.33 -0.102,-4.151 -1.776,-5.719c-1.693,-1.584 -1.876,-3.699 -2.035,-5.803c-0.357,-4.737 -1.323,-9.322 -3.233,-13.687c-0.202,-0.463 -0.413,-0.915 -0.947,-1.145c-0.902,-0.225 -1.293,0.863 -2.328,0.901c-0.909,-0.978 -1.912,-2.057 -2.904,-3.124c-0.449,-1.83 -0.174,-3.643 -0.237,-5.439" style="fill:#cacaca;fill-rule:nonzero;"/><path d="M214.62,399.629c0.656,1.663 1.118,2.772 0.965,4.163c-1.033,1.616 -2.09,3.335 -4.715,2.768c-1.144,-1.541 -3.017,-2.498 -3.924,-4.242c0.329,-3.124 0.329,-3.124 2.548,-4.443c1.638,0.73 3.056,2.209 5.126,1.754" style="fill:#b5b5b5;fill-rule:nonzero;"/><path d="M168.107,348.887c0.005,1.816 0.01,3.632 0.015,5.448c-1.044,4.732 -0.187,9.595 -1.043,14.512c1.835,2.886 0.507,5.389 -1.371,7.795c-0.808,0.604 -1.616,1.209 -2.424,1.813c0.002,-0.946 0.29,-1.781 0.98,-2.447c1.733,-1.674 2.114,-3.801 2.061,-6.079c-0.046,-2.005 -0.05,-3.997 -0.412,-5.997c-0.453,-2.495 0.363,-4.977 0.53,-7.469c0.172,-2.551 1.079,-5.053 1.664,-7.576" style="fill:#bebebe;fill-rule:nonzero;"/><path d="M163.298,386.892c0.004,-1.609 0.008,-3.216 0.012,-4.823c3.99,-0.5 7.979,-0.988 11.772,1.408c-1.373,0.906 -1.373,0.906 -7.578,0.137c-2.14,0.286 -2.43,2.698 -4.206,3.278" style="fill:#cacaca;fill-rule:nonzero;"/><path d="M171.21,352.902c1.502,1.834 1.149,4.203 -1.12,7.538c-1.714,-2.615 -1.254,-5.715 1.12,-7.538" style="fill:#cacaca;fill-rule:nonzero;"/><path d="M380.368,221.088c-1.617,2.252 -3.57,3.879 -6.426,4.521c-3.154,0.707 -3.783,1.801 -3.829,5.125c-0.013,0.999 -0.011,1.999 -0.017,2.996c-1.22,1.028 -2.203,2.251 -3.023,3.613c-2.328,0.538 -3.175,3.017 -5.195,3.959c-1.204,0.518 -2.64,-0.045 -3.933,0.921c-0.79,0.77 -1.123,1.905 -1.085,3.151c0.058,1.969 -0.82,3.485 -2.225,4.744c-1.642,1.471 -3.358,2.861 -4.951,4.381c-0.995,0.947 -2.038,1.469 -3.439,1.589c-2.595,0.223 -3.023,0.662 -3.242,3.346c-0.113,1.395 -0.541,2.66 -1.476,3.531c-3.188,2.971 -5.869,6.643 -10.329,7.966c-1.601,0.475 -2.619,1.367 -2.717,3.156c-0.112,2.051 -1.225,3.591 -2.828,4.743c-1.072,0.77 -2.046,1.632 -2.916,2.599c-1.916,2.134 -3.987,3.923 -7.026,4.216c-1.274,0.123 -2.501,0.828 -2.601,2.148c-0.197,2.607 -1.981,4.102 -3.588,5.701c-2.825,2.809 -5.418,5.964 -9.657,6.839c-1.524,0.315 -2.327,1.522 -2.624,3.004c-0.247,1.234 -0.846,2.253 -1.725,3.109c-1.797,1.751 -3.569,3.534 -5.454,5.186c-1.576,1.385 -3.21,2.891 -5.484,2.861c-4.73,-0.066 -9.385,0.938 -14.064,1.083c-7.711,0.237 -15.401,1.224 -23.133,0.761c-0.9,-0.054 -1.808,0.005 -2.711,0.023c-0.94,0.02 -1.791,0.278 -2.412,1.03c-1.724,2.084 -3.547,4.097 -5.135,6.28c-3.371,4.639 -7.318,8.73 -11.626,12.474c-1.044,0.908 -1.727,1.959 -2.18,3.175c-1.177,3.163 -1.265,6.697 -3.271,9.59c-0.196,0.283 -0.072,0.786 -0.096,1.187c-1.941,2.507 -2.906,5.438 -3.668,8.457c-0.377,0 -0.756,0 -1.134,0.001c0.335,-2.745 0.571,-5.537 0.911,-8.232c0.345,-2.748 1.38,-5.774 3.2,-8.221c0.237,-0.32 0.65,-0.557 0.773,-0.905c1.889,-5.299 6.642,-8.637 9.189,-13.476c0.182,-0.348 0.267,-0.748 0.398,-1.123c2.835,-3.059 5.67,-6.118 8.412,-9.076c-0.353,-2.522 -0.905,-4.575 -3.033,-5.876c-1.062,-0.649 -1.644,-1.682 -1.801,-2.981c-0.168,-1.386 -0.543,-2.738 -0.634,-4.15c-0.075,-1.158 -0.202,-2.41 -1.593,-3.109c-1.278,0.472 -2.095,1.435 -2.71,2.613c-1.937,3.711 -5.079,6.294 -8.225,8.894c-3.599,2.975 -7.646,5.471 -10.311,9.466c-0.203,-0.001 -0.407,-0.002 -0.611,-0.004c0.003,-0.601 0.006,-1.203 0.01,-1.804c0.99,-1.485 1.998,-2.918 3.353,-4.149c2.726,-2.478 5.797,-4.478 8.702,-6.706c2.223,-1.746 4.141,-3.712 5.602,-6.202c2.232,-3.802 4.586,-7.552 7.862,-10.6c0.903,-0.841 1.333,-1.994 1.895,-3.058c2.177,-4.121 4.766,-7.906 8.66,-10.63c1.101,-0.77 1.83,-1.841 2.397,-3.043c1.128,-2.39 2.637,-4.514 4.635,-6.248c3.083,-2.676 5.092,-6.181 7.358,-9.479c1.238,-1.802 1.136,-3.335 -0.629,-4.813c-2.59,-2.171 -2.601,-4.599 -1.304,-7.283c1.525,-3.157 3.406,-6.131 4.739,-9.398c0.525,-1.287 1.758,-2.184 2.876,-3.041c4.056,-3.106 7.841,-6.546 11.805,-9.765c2.878,-2.338 5.043,-5.548 7.162,-8.766c2.542,-3.863 4.031,-7.978 5.165,-12.105c6.746,-5.568 10.811,-12.577 13.375,-20.557c0.497,-1.552 1.197,-3.127 2.361,-4.161c4.109,-3.649 5.995,-8.923 9.686,-12.86c1.77,-1.886 3.855,-3.513 4.835,-6.069c1.148,-2.998 2.815,-5.649 4.76,-8.273c2.388,-3.22 3.296,-7.228 2.678,-11.54c-2.521,-1.198 -5.075,-1.484 -7.647,-1.189c-2.117,0.244 -4.19,0.402 -6.273,-0.107c-1.388,-0.34 -2.8,-0.269 -4.202,-0.229c-5.438,0.156 -10.774,-0.931 -16.167,-1.302c-0.71,-0.05 -1.381,-0.282 -1.927,-1.087c0.434,-1.81 1.956,-2.239 3.569,-2.384c1.396,-0.127 2.811,-0.036 4.217,-0.063c7.018,-0.135 13.988,-0.712 20.856,-2.253c0.479,-0.107 0.991,-0.065 1.545,-0.095c0.926,0.559 1.859,1.123 2.607,1.574c1.532,0.203 2.386,-0.495 2.904,-1.532c1.03,-2.058 2.438,-3.928 3.065,-6.193c0.374,-1.354 0.859,-2.666 1.647,-3.863c1.063,-1.616 0.941,-3.364 0.561,-5.439c-1.497,0.759 -2.122,1.891 -2.86,2.91c-1.235,1.708 -2.362,3.509 -3.739,5.094c-2.477,2.854 -5.1,2.502 -6.867,-0.803c-0.663,-1.241 -1.2,-2.564 -2.548,-3.263c-1.528,-1.946 -1.763,-4.364 -2.431,-6.625c1.607,1.404 2.735,3.155 3.762,5.008c1.417,2.556 4.172,3.916 6.566,3.376c0.637,-0.899 -0.3,-2.005 0.412,-2.92c0.819,-1.585 2.749,-0.927 4.073,-1.967c1.618,-1.807 1.899,-5.549 5.798,-5.051c1.783,4.215 -1.848,7.736 -0.978,11.448c0.865,1.061 1.956,1.02 2.913,1.118c2.264,0.231 3.995,2.075 6.195,2.145c2.194,0.071 4.137,0.52 5.947,1.733c0.938,0.629 2.078,0.684 3.159,0.911c1.277,0.269 2.509,0.638 3.421,1.73c1.282,1.537 2.771,2.913 3.97,4.51c2.382,3.171 5.447,5.934 5.972,10.242c0.338,2.783 0.903,5.545 1.48,8.293c0.504,2.401 0.426,4.756 0.093,7.172c-0.395,2.869 -1.023,5.832 -0.664,8.641c0.374,2.91 0.489,5.758 0.357,8.655c-0.153,3.398 -4.619,7.319 -8.053,7.075c-8.719,-0.619 -17.428,-0.42 -26.157,-0.066c-6.085,0.247 -9.404,-4.52 -7.41,-9.076c1.384,-3.159 0.11,-6.141 -1.15,-8.98c-0.571,-1.285 -1.848,-2.09 -3.547,-2.032c-2.628,1.438 -4.888,3.293 -6.051,6.289c-0.508,1.306 -1.276,2.507 -1.858,3.786c-0.819,1.803 -2.031,3.167 -3.824,4.09c-1.91,0.982 -3.293,2.579 -4.54,4.379c0.146,1.851 -0.706,3.5 -1.221,5.208c-1.378,4.556 -3.492,8.843 -6.644,12.373c-2.71,3.034 -4.48,6.362 -5.385,10.241c-0.254,1.084 -0.418,2.254 -1.243,3.025c-1.96,1.831 -3.159,4.128 -4.302,6.483c-0.455,0.94 -1.271,1.523 -2.113,2.091c-1.58,1.066 -2.447,2.534 -2.766,4.455c-0.853,5.142 -1.868,10.262 -1.757,15.51c0.03,1.445 -0.297,2.765 -0.95,4.053c-1.654,3.26 -1.863,6.966 -3.132,10.352c-0.286,0.762 -0.041,1.596 0.202,2.369c1.229,3.889 0.614,7.775 -0.336,11.553c-0.736,2.931 -0.804,5.534 1.443,7.774c-0.523,1.24 -1.204,2.331 -0.42,3.649c0.968,0.987 2.252,1.467 3.704,1.558c0.301,0.018 0.606,0.041 0.903,0.015c4.331,-0.381 8.628,0.941 12.898,0.488c2.954,-0.312 5.78,-0.085 8.639,0.303c3.226,0.439 5.858,-0.598 7.931,-2.524c1.242,-5.24 3.467,-9.999 1.899,-15.211c-2.352,-0.915 -4.586,-1.499 -6.915,-0.941c-1.794,0.431 -3.599,0.257 -5.387,0.435c-3.407,0.339 -5.699,-1.269 -7.621,-3.864c0.33,-0.625 0.488,-1.291 0.906,-1.652c1.804,-1.555 2.118,-3.558 1.901,-5.741c-0.327,-3.289 0.879,-6.559 0.069,-9.865c-0.217,-0.886 0.177,-1.802 0.641,-2.589c1.251,-2.121 1.295,-4.381 0.89,-6.713c-0.658,-3.793 2.039,-9.083 5.469,-10.823c3.252,-1.65 6.683,-1.048 10.049,-0.721c1.601,0.156 3.217,0.566 4.778,0.208c2.392,-0.547 4.79,-0.466 7.195,-0.47c7.132,-0.011 14.265,0.005 21.399,-0.012c1.101,-0.003 2.327,0.173 3.278,-0.237c3.071,-1.327 6.16,-0.293 9.213,-0.247c2.886,0.045 3.992,2.553 2.61,5.189c-0.511,0.975 -1.025,1.948 -1.557,2.961c0.407,1.583 0.12,3.173 0.123,4.625c1.187,1.8 2.696,1.771 4.408,1.227c2.308,-2.567 4.125,-5.639 6.925,-7.363c0.95,-2.325 0.002,-4.544 1.1,-7.053c3.138,-1.042 7.185,-1.221 9.634,-4.521c0.206,0.002 0.412,0.004 0.618,0.006" style="fill:#ddd;fill-rule:nonzero;"/><path d="M215.149,358.554c0.378,0 0.756,-0.001 1.134,-0.001c0.052,2.563 -1.532,4.733 -1.744,7.233c-1.911,3.153 -1.617,6.662 -0.841,9.892c0.847,3.527 1.494,7.002 1.459,10.614c-1.143,-0.599 -1.054,-1.841 -1.51,-2.809c-0.628,-1.335 -0.807,-2.899 -1.976,-4.113c-2.864,0.563 -5.435,2.759 -8.578,1.721c-0.968,-0.321 -1.782,-0.911 -2.226,-2.063c-0.029,-2.265 1.856,-2.987 3.511,-3.855c1.827,-0.959 3.722,0.774 5.89,-0.17c1.662,-1.841 1.403,-4.663 2.447,-6.98c1.359,-3.013 1.142,-6.436 2.434,-9.469" style="fill:#cacaca;fill-rule:nonzero;"/><path d="M226.616,445.966c0.108,4.104 0.85,8.172 0.649,12.296c-0.028,0.577 0.096,1.255 0.393,1.738c1.715,2.795 1.381,6.013 1.888,9.043c0.247,1.476 0.232,3.043 0.788,4.422c1.878,4.65 2.055,9.544 2.316,14.436c0.027,0.499 -0.013,1.062 0.205,1.478c1.72,3.288 1.607,7.01 2.541,10.48c0.238,0.885 0.32,1.791 0.106,2.683c-0.598,2.493 -0.819,4.928 0.512,7.305c0.336,0.601 0.278,1.38 -0.49,1.868c-1.084,0.042 -1.235,-0.896 -1.471,-1.587c-0.973,-2.86 -2.324,-5.492 -3.847,-8.117c-1.272,-2.192 -1.58,-4.933 -2.379,-7.412c-1.108,-3.435 -2.154,-6.897 -3.448,-10.262c-1.484,-3.854 -2.386,-7.862 -3.438,-11.827c-0.743,-2.802 -0.657,-5.767 -0.862,-8.645c-0.299,-4.214 -0.98,-8.35 -1.639,-12.5c-0.332,-2.099 -0.428,-4.171 0.039,-6.437c4.58,-1.858 6.081,-6.609 8.996,-10.091c1.228,-1.468 2.219,-3.047 3.551,-3.531c1.368,-1.27 0.556,-2.822 1.664,-3.658c1.204,-0.08 1.309,0.861 1.306,1.6c-0.019,3.456 -0.929,6.371 -4.07,8.517c-3.636,2.486 -4.922,4.639 -3.31,8.213l0,-0.012Z" style="fill:#cacaca;fill-rule:nonzero;"/><path d="M259.525,561.47c1.32,0.656 0.548,2.119 1.137,3.196c3.235,3.785 3.585,6.321 0.897,9.069c-1.822,-3.464 -1.155,-7.489 -2.878,-10.819c-0.242,-0.469 -0.05,-1.202 0.844,-1.446" style="fill:#cacaca;fill-rule:nonzero;"/><path d="M209.724,322.378c2.665,-3.995 6.712,-6.491 10.311,-9.465c3.146,-2.601 6.288,-5.184 8.225,-8.896c0.615,-1.177 1.432,-2.14 2.71,-2.613c1.391,0.701 1.518,1.952 1.593,3.11c0.091,1.412 0.466,2.763 0.634,4.151c0.157,1.298 0.739,2.331 1.801,2.98c2.129,1.301 2.68,3.353 3.033,5.876c-2.742,2.958 -5.577,6.017 -8.412,9.076c-1.458,0.954 -2.559,2.208 -3.402,3.743c-1.064,1.94 -2.219,3.826 -4.232,4.985c-0.719,0.414 -1.173,1.093 -1.417,1.887c-0.428,1.387 -1.27,2.489 -2.306,3.471c-0.29,0.274 -0.646,0.56 -0.774,0.912c-2.105,5.807 -5.394,11.215 -5.9,17.565c-0.098,1.236 0.72,2.274 0.695,3.614c-1.993,0 -3.878,0.103 -5.747,-0.021c-3.735,-0.249 -6.577,1.243 -6.881,5.727c0.363,2.456 2.7,3.027 4.198,4.267c0.126,1.196 -0.773,1.402 -1.422,1.811c-3.865,2.44 -4.009,4.477 -0.522,7.35c0.308,0.254 0.621,0.518 0.66,1.089c-0.221,1.094 -1.776,1.153 -2.192,2.711c0.026,2.648 3.171,4.19 3.651,7.268c-1.83,4.702 -3.448,9.743 -6.288,14.269c-0.968,1.541 -2.374,2.369 -3.893,3.033c-2.405,-1.356 -2.964,-2.436 -2.637,-4.835c0.509,-3.729 -0.187,-7.352 -1.007,-10.963c-0.445,-1.964 -2.363,-2.635 -3.597,-4.015c-0.834,-2.373 -0.022,-4.96 -0.636,-6.878c1.355,-5.53 3.764,-10.462 1.156,-15.777c0.514,-1.066 0.987,-2.048 1.357,-2.815c0.117,-1.389 -0.717,-2.061 -1.283,-2.872c-0.851,-1.214 -1.456,-2.679 -0.658,-3.953c1.865,-2.978 1.634,-6.326 2.011,-9.551c0.391,-3.329 2.023,-6.107 3.789,-8.728c1.497,-2.223 4.33,-2.824 6.758,-3.56c3.814,-1.157 6.543,-3.126 7.91,-7.027c0.815,-2.33 2.642,-4.283 2.714,-6.926" style="fill:#ddd;fill-rule:nonzero;"/><path d="M208.35,365.278c-0.377,2.41 -0.377,2.41 -2.345,4.855c-2.575,0.637 -3.793,0.387 -4.394,-1.08c-0.567,-1.382 -0.486,-2.749 0.684,-3.864c1.59,-1.517 3.735,-1.512 6.055,0.089" style="fill:#cacaca;fill-rule:nonzero;"/><path d="M189.222,341.672c0.827,-4.754 4.853,-8.2 9.63,-8.262c1.784,-0.022 3.315,-0.645 4.456,-2.048c0.5,-0.616 0.857,-1.351 1.588,-1.753c-0.449,2.804 -2.473,4.084 -4.914,4.655c-4.594,1.071 -8.302,3.297 -10.76,7.408" style="fill:#cacaca;fill-rule:nonzero;"/><path d="M202.696,386.236c1.671,-1.166 1.671,-1.166 3.084,0.57c0.014,0.836 -0.58,1.199 -1.16,1.605c-1.381,-0.159 -1.968,-0.892 -1.924,-2.175" style="fill:#cacaca;fill-rule:nonzero;"/><path d="M211.16,252.763c0.65,-1.186 -0.072,-2.757 0.795,-3.77c2.368,-2.765 4.991,-5.335 8.907,-5.551c2.388,-0.132 4.82,-0.325 7.192,0.315c1.402,0.378 2.656,-0.047 3.607,-1.003c2.539,-2.552 4.393,-5.733 2.904,-9.445c-1.301,-3.244 -2.435,-6.44 -2.943,-9.991c-0.371,-2.593 -0.927,-5.061 -0.307,-7.65c-1.491,-3.104 -1.864,-6.363 -1.705,-9.716c0.047,-1.002 0.06,-2.014 -0.026,-3.011c-0.22,-2.572 -1.718,-4.034 -4.263,-4.14c-2.226,-0.093 -4.389,0.44 -6.516,0.972c-1.226,0.307 -2.325,1.084 -2.616,2.719c2.265,0.862 4.409,1.663 6.542,2.495c1.909,0.743 2.633,2.124 2.719,4.206c0.133,3.244 -0.778,6.305 -1.038,9.369c-4.237,2.254 -8.046,6.882 -8.325,10.1c2.457,2.441 3.607,-1.655 5.622,-1.287c0.702,2.455 -0.486,5.033 -2.99,6.638c-1.506,-0.124 -1.545,-2.092 -3.117,-2.377c-2.074,1.266 -1.967,3.68 -2.76,5.98c-3.358,1.427 -5.568,4.527 -7.835,7.359c-2.391,2.991 -5.569,5.042 -8.253,7.661c3.012,2.871 10.872,2.825 14.406,0.127m-7.465,-72.679c1.527,-0.72 3.165,-0.209 4.744,-0.42c2.379,-0.319 4.783,-0.331 7.171,-0.717c3.913,-0.632 7.627,0.538 11.072,2.182c3.763,1.794 7.283,3.893 10.409,6.931c2.22,2.156 3.221,4.639 4.588,7.095c-0.375,2.89 0.893,6.059 -1.137,8.891c-1.319,-0.777 -1.608,-1.747 -1.916,-2.691c-0.804,-2.48 -1.593,-4.963 -2.382,-7.446c-0.418,-1.314 -0.663,-2.737 -2.306,-3.498c-2.78,1.912 1.173,4.294 -0.347,6.24c-0.805,0.733 -1.611,1.467 -2.418,2.203c-1.549,5.04 0.365,9.498 2.221,13.931c0.561,1.337 1.812,1.793 3.271,1.551c0.949,-0.158 1.952,-0.73 2.899,0.464c0.262,1.552 -0.226,2.935 -1.47,3.932c-1.222,0.257 -2.054,-0.752 -3.275,-0.374c-0.751,0.281 -1.326,0.902 -1.423,2.128c1.299,4.8 3.046,9.66 3.967,14.798c0.788,4.4 -3.724,10.669 -8.452,10.429c-2.923,-0.147 -5.774,0.313 -8.672,0.317c-4.74,0.007 -6.712,2.38 -6.437,7.166c0.094,1.624 -0.438,2.76 -2.271,2.86c-0.824,-0.19 -1.649,-0.38 -2.474,-0.57c-3.233,-0.446 -6.36,0.891 -9.586,0.576c-1.207,-0.605 -2.413,-1.211 -3.62,-1.815c-0.283,-0.618 -0.899,-1.105 -0.721,-1.976c0.382,-1.289 1.507,-1.9 2.61,-2.62c2.491,-1.625 5.116,-3.133 6.443,-6.027c1.183,-2.585 2.856,-4.771 5.318,-6.282c2.239,-1.375 3.23,-3.427 3.24,-6.008l-0.001,0.003c0.874,-0.882 1.414,-1.972 1.674,-3.152c0.267,-1.22 0.705,-2.452 1.598,-3.18c3.604,-2.936 4.028,-7.517 5.977,-11.29c1.386,-2.683 -0.286,-4.87 -3.308,-4.951c-1.096,0.838 -1.094,2.063 -1.115,3.273c-0.026,1.504 0.031,3.014 -0.061,4.514c-0.076,1.228 -0.325,2.442 -2.259,2.598c-1.756,-1.781 -2.036,-4.527 -3.475,-6.41c0.789,-3.167 0.789,-3.167 0.4,-4.979c-3.428,-1.6 -3.257,2.167 -4.686,3.284c-1.266,0.579 -2.49,0.316 -3.678,0.395c-1.184,0.08 -2.402,-0.227 -3.523,0.254c-0.649,0.891 0.541,1.772 -0.047,2.558c-0.392,0.608 -0.979,0.798 -1.555,0.947c-2.804,0.728 -4.457,2.544 -5.163,5.313c-0.222,0.877 -0.566,1.724 -1.161,2.428c-1.174,1.388 -3.057,1.621 -4.194,0.24c-1.438,-1.747 -3.16,-3.4 -3.487,-5.765c0.536,-1.633 1.954,-1.701 3.187,-2.012c1.964,-0.494 2.983,-1.54 3.276,-3.711c0.329,-2.422 0.27,-5.019 1.636,-7.117c2.517,-1.158 3.526,1.828 4.987,1.773c5.608,-1.221 9.68,-3.747 12.41,-8.375c-1.586,-1.428 -2.863,-1.006 -4.196,-0.023c-1.425,1.051 -2.892,1.22 -4.406,-0.047c0.319,-3.154 2.854,-4.851 4.686,-7.182c-1.749,-0.081 -3.277,0.754 -4.681,-0.434c-0.886,-3.021 3.343,-3.075 3.474,-5.531c-1.482,-0.953 -3.344,0.148 -4.6,-1.068c0.439,-1.934 2.465,-2.191 3.245,-3.603" style="fill:#cacaca;fill-rule:nonzero;"/><path d="M209.057,255.486c0.825,0.19 1.65,0.38 2.474,0.57c0.505,0.741 0.946,1.576 2.346,1.397c1.379,-2.108 0.303,-4.529 0.39,-6.78c0.825,-1.612 1.793,-3.208 3.576,-3.474c2.952,-0.441 5.972,-0.724 8.947,-0.614c1.566,0.058 3.34,0.118 5.388,1.201c-3.099,2.123 -4.961,5.043 -8.103,6.523c-1.185,0.558 -2.434,1.135 -2.819,2.526c-0.974,3.524 -3.214,5.41 -6.885,5.579c-0.165,0.007 -0.32,0.223 -0.566,0.406c-0.713,1.317 -0.574,3.026 -1.646,4.357c-1.102,1.367 -2.724,1.98 -3.761,2.847c-0.736,1.263 0.033,2.266 -0.3,3.419c-0.91,1.225 -1.825,2.661 -3.2,3.714c-1.781,0.136 -3.769,-0.567 -5.302,0.496c-1.649,1.143 -3.441,2.033 -5.053,3.16c-1.46,1.021 -3.27,1.759 -4.322,3.176c-2.332,3.139 -5.094,5.861 -7.763,8.679c-1.225,1.293 -1.829,2.772 -1.734,4.666c1.694,-0.068 2.786,-0.859 3.788,-1.888c0.831,-0.852 1.589,-1.842 2.905,-2.009c-1.583,2.245 -3.692,3.892 -5.956,5.404c-2.596,1.733 -2.849,2.605 -1.948,5.543c0.322,1.052 0.726,2.082 1.001,3.144c0.527,2.042 0.342,3.966 -1.101,5.643c-1.186,1.378 -1.987,2.927 -2.539,4.695c-0.878,2.809 -3.01,4.852 -5.105,7.723c-1.187,-2.924 0.035,-5.919 -1.826,-8.047c0,-0.853 -0.032,-1.712 0.58,-2.415c0.432,2.175 0.625,4.467 2.428,5.91c1.255,-0.361 1.747,-1.079 2.004,-1.795c1.152,-3.205 2.289,-6.421 3.24,-9.69c0.392,-1.347 0.044,-2.743 -1.133,-3.763c-1.672,0.631 -2.792,1.831 -4.115,2.719c0.035,-1.665 0.733,-3.117 1.754,-4.331c1.049,-1.246 1.369,-2.588 1.24,-4.126c1.499,-3.473 4.142,-6.107 6.573,-8.889c2.891,-3.308 5.231,-7.061 8.481,-10.092c2.936,-2.738 5.878,-5.425 9.39,-7.419c0.517,-0.293 1.117,-0.6 1.427,-1.068c1.847,-2.774 4.524,-4.375 7.433,-5.844c3.015,-1.523 3.889,-4.945 2.562,-8.603c-0.733,-1.016 -2.092,-1.474 -2.75,-2.65" style="fill:#cacaca;fill-rule:nonzero;"/><path d="M195.851,254.246c1.206,0.606 2.413,1.211 3.62,1.815c-1,-0.055 -2.027,0.015 -2.994,-0.193c-1.962,-0.42 -2.951,-1.519 -3.014,-3.562c-0.092,-3.037 -1.054,-5.689 -2.987,-8.01c-0.657,-0.79 -1.076,-1.7 -1.231,-2.71c-0.194,-1.272 -0.892,-2.208 -1.858,-2.99l0.036,-0.042c1.932,0.065 2.96,1.085 2.988,2.997c0.03,1.963 1.385,3.047 2.687,4.098c1.507,1.219 3.078,0.701 3.785,-1.13c0.316,-0.816 0.133,-1.819 1.032,-2.547c1.353,-0.629 2.562,-0.115 3.65,0.798c0.621,1.58 -0.057,2.557 -1.307,3.297c-1.541,0.914 -3.179,1.699 -4.601,2.771c-2.283,1.721 -2.139,3.929 0.194,5.408" style="fill:#ddd;fill-rule:nonzero;"/><path d="M170.524,315.126c-0.614,0.704 -0.58,1.564 -0.58,2.415c0.185,4.385 0.473,8.764 -0.586,13.106c-0.242,0.991 -0.246,1.994 -1.238,2.583c0.108,-2.555 -0.343,-5.138 0.961,-7.606c0.463,-0.875 0.202,-2.147 0.229,-3.24c0.076,-3.079 -0.482,-6.272 0.642,-9.193c1.731,-4.488 2.551,-9.423 5.988,-13.14c0.13,1.538 -0.191,2.88 -1.239,4.126c-1.021,1.213 -1.72,2.665 -1.754,4.331c-0.651,2.264 -2.234,4.186 -2.423,6.618" style="fill:#bebebe;fill-rule:nonzero;"/><path d="M185.62,238.527c-2.164,-1.888 -1.95,-4.407 -1.765,-6.883c0.133,-1.771 0.222,-3.581 0.672,-5.284c0.584,-2.21 0.319,-4.308 -0.168,-6.443l0.049,-0.048c0.844,0.804 1.125,1.841 1.23,2.955c0.306,3.274 0.125,6.52 -0.642,9.718c-0.442,1.841 -0.527,3.549 1.224,4.811c0.197,0.004 0.393,0.007 0.589,0.012c0.205,0.396 0.41,0.793 0.614,1.189l-0.036,0.042c-0.589,-0.023 -1.178,-0.046 -1.767,-0.069" style="fill:#ddd;fill-rule:nonzero;"/><path d="M221.178,309.715c-2.905,2.228 -5.976,4.228 -8.702,6.706c-1.355,1.232 -2.362,2.664 -3.354,4.149c-1.814,2.413 -3.186,5.101 -4.759,7.663c-1.639,2.671 -2.66,3.203 -5.259,2.782c-1.168,-0.806 -0.621,-2.557 -2.195,-3.572c-1.985,1.485 -4.233,2.968 -6.952,3c-0.886,1.843 -1.081,3.693 -2.152,5.185c-0.414,0.578 -0.41,1.36 -0.177,2.046c0.499,1.472 0.115,2.891 -0.633,4.045c-1.518,2.342 -3.238,4.558 -4.954,6.763c-0.74,0.95 -1.88,1.215 -3.014,0.852c-1.236,-0.396 -2.471,-0.869 -3.606,-1.494c-1.087,-0.596 -1.672,-1.85 -0.968,-2.829c2.723,-3.79 1.034,-7.856 0.608,-11.666c-0.384,-3.428 0.259,-6.314 1.641,-9.218c3.746,-0.005 7.029,-5.546 8.753,-9.536c2.79,-1.868 5.435,-4.154 8.826,-5.353c1.841,-0.651 3.453,-1 5.242,0.412c0.772,1.542 1.782,3.147 3.321,4.685c2.67,0.37 4.503,-1.465 6.337,-3.073c0.98,-0.857 1.78,-1.874 3.063,-2.35c0.444,-0.166 0.985,-0.512 1.152,-0.914c1.182,-2.852 3.837,-4.319 5.912,-6.3c2.43,-2.319 4.321,-5.04 6.09,-7.818c2.051,-3.22 4.447,-6.169 6.64,-9.274c1.039,-1.471 1.987,-3.008 2.946,-4.47c1.139,-0.781 2.632,-0.608 3.819,-1.87c0.644,-1.321 1.736,-2.891 1.614,-4.749c-0.224,-3.426 1.69,-5.614 4.006,-7.643c0.374,-0.326 0.764,-0.635 1.16,-0.962c0.826,-3.238 -2.467,-3.779 -3.627,-5.639c0.122,-2.728 4.859,-8.891 9.092,-11.536c-0.016,3.413 0.003,6.578 0.866,9.41c-2.687,2.711 -2.687,2.711 -2.647,4.602c0.587,1.121 2.064,0.736 2.907,1.817c0.507,1.862 -0.663,3.344 -1.887,4.597c-1.996,2.041 -3.619,4.289 -4.841,6.852c-0.486,1.019 -1.223,1.848 -2.161,2.468c-3.309,2.19 -5.321,5.406 -6.972,8.883c-0.566,1.191 -1.198,2.344 -2.029,3.334c-3.582,4.269 -6.072,9.197 -8.628,14.085c-0.621,1.188 -1.558,2.08 -2.466,3.018c-0.831,0.857 -1.842,1.596 -2.012,2.912" style="fill:#bebebe;fill-rule:nonzero;"/><path d="M187.423,238.554c-0.205,-0.396 -0.409,-0.793 -0.613,-1.19c1.189,0.132 2.378,0.263 3.531,0.389c0.922,-0.182 1.601,-0.952 2.867,-0.846c2.164,0.452 4.624,0.815 6.931,0.12c0.996,-0.87 1.206,-1.876 1.108,-2.879c-0.277,-2.85 0.947,-5.128 2.813,-7.026c2.268,-2.309 2.407,-4.889 1.641,-7.776c-1.278,-1.058 -2.592,-1.585 -4.238,-0.899c-2.861,2.778 -0.928,7.291 -3.45,10.241c-1.883,0.173 -3.847,-0.512 -5.352,0.701c-2.137,1.723 -3.663,4.104 -5.989,5.675c-0.643,0.435 -0.447,1.487 -0.451,2.29c-1.752,-1.262 -1.667,-2.971 -1.225,-4.811c0.767,-3.199 0.949,-6.445 0.641,-9.72c-0.104,-1.114 -0.385,-2.149 -1.228,-2.954c-0.183,-0.779 -0.446,-1.549 -0.536,-2.339c-0.246,-2.152 0.377,-3.098 2.568,-3.645c1.357,-0.339 2.508,-0.721 2.589,-2.424c-0.647,-1.606 -2.96,-1.716 -3.295,-3.673c-0.28,-1.635 0.277,-3.184 0.234,-4.782c-0.006,-0.199 -0.036,-0.4 -0.084,-0.594c-0.869,-3.575 -0.028,-6.364 3.446,-7.617c0.818,-1.316 0.045,-2.411 0.217,-3.409c2.92,-6.095 8.279,-9.019 14.146,-11.303c-0.779,1.412 -2.805,1.67 -3.244,3.604c1.257,1.216 3.118,0.115 4.599,1.069c-0.13,2.455 -4.358,2.509 -3.473,5.529c1.405,1.19 2.933,0.355 4.681,0.436c-1.832,2.329 -4.368,4.028 -4.687,7.181c1.515,1.267 2.981,1.099 4.408,0.047c1.332,-0.983 2.61,-1.406 4.194,0.023c-2.73,4.627 -6.8,7.153 -12.408,8.374c-1.462,0.057 -2.471,-2.929 -4.987,-1.772c-1.367,2.098 -1.309,4.695 -1.637,7.118c-0.293,2.17 -1.313,3.217 -3.275,3.71c-1.233,0.31 -2.652,0.38 -3.187,2.012c0.326,2.365 2.048,4.019 3.486,5.765c1.137,1.38 3.02,1.148 4.194,-0.241c0.596,-0.703 0.938,-1.55 1.162,-2.427c0.705,-2.769 2.358,-4.584 5.161,-5.313c0.576,-0.15 1.163,-0.34 1.556,-0.947c0.588,-0.785 -0.602,-1.667 0.047,-2.558c1.12,-0.481 2.339,-0.174 3.523,-0.253c1.189,-0.081 2.411,0.184 3.678,-0.395c1.428,-1.118 1.258,-4.885 4.685,-3.285c0.389,1.813 0.389,1.813 -0.398,4.979c1.438,1.884 1.718,4.63 3.473,6.41c1.934,-0.157 2.184,-1.369 2.26,-2.597c0.092,-1.502 0.035,-3.01 0.06,-4.516c0.022,-1.208 0.019,-2.433 1.117,-3.273c3.02,0.083 4.693,2.269 3.306,4.953c-1.948,3.772 -2.372,8.352 -5.975,11.29c-0.894,0.727 -1.333,1.958 -1.6,3.179c-0.258,1.18 -0.799,2.269 -1.673,3.152c0.245,-2.252 1.14,-4.485 0.254,-6.721c-0.691,-0.82 -1.458,-1.14 -2.425,-0.76c-1.443,0.558 -1.201,2.241 -2.063,3.105c-6.14,3.642 -7.053,6.815 -3.007,10.586c2.589,-0.085 4.444,-1.376 5.667,-3.681c0.466,-0.879 0.803,-1.841 1.574,-2.532c-0.008,2.58 -0.999,4.633 -3.239,6.009c-2.462,1.511 -4.134,3.695 -5.318,6.281c-1.326,2.894 -3.953,4.403 -6.444,6.028c-1.101,0.718 -2.228,1.33 -2.609,2.619c-0.179,0.871 0.438,1.359 0.721,1.975c-2.333,-1.479 -2.477,-3.687 -0.194,-5.408c1.422,-1.072 3.06,-1.857 4.601,-2.771c1.25,-0.74 1.928,-1.717 1.307,-3.297c-1.088,-0.913 -2.297,-1.427 -3.651,-0.798c-0.898,0.728 -0.715,1.731 -1.03,2.547c-0.709,1.831 -2.279,2.349 -3.787,1.13c-1.301,-1.051 -2.656,-2.135 -2.685,-4.098c-0.029,-1.912 -1.057,-2.932 -2.989,-2.997" style="fill:#ddd;fill-rule:nonzero;"/><path d="M204.899,277.157c1.373,-1.053 2.289,-2.489 3.198,-3.714c0.333,-1.153 -0.435,-2.156 0.301,-3.419c1.037,-0.867 2.66,-1.48 3.761,-2.847c1.071,-1.331 0.934,-3.04 1.646,-4.357c0.247,-0.183 0.401,-0.399 0.565,-0.406c3.672,-0.169 5.912,-2.055 6.887,-5.579c0.385,-1.391 1.632,-1.968 2.819,-2.526c3.14,-1.48 5.004,-4.4 8.101,-6.523c-2.046,-1.083 -3.821,-1.143 -5.388,-1.201c-2.974,-0.11 -5.993,0.173 -8.946,0.614c-1.782,0.266 -2.751,1.862 -3.577,3.474c-0.087,2.251 0.989,4.672 -0.39,6.78c-1.399,0.179 -1.84,-0.656 -2.344,-1.397c1.832,-0.1 2.363,-1.236 2.27,-2.86c-0.276,-4.786 1.697,-7.159 6.437,-7.166c2.897,-0.004 5.75,-0.464 8.672,-0.317c4.728,0.24 9.24,-6.029 8.453,-10.429c-0.922,-5.138 -2.669,-9.998 -3.968,-14.798c0.098,-1.226 0.673,-1.847 1.422,-2.128c1.221,-0.378 2.055,0.632 3.276,0.374c1.244,-0.997 1.732,-2.38 1.471,-3.932c-0.947,-1.193 -1.951,-0.622 -2.901,-0.464c-1.458,0.242 -2.71,-0.214 -3.269,-1.551c-1.857,-4.433 -3.771,-8.891 -2.222,-13.931c0.807,-0.736 1.613,-1.47 2.419,-2.203c1.519,-1.946 -2.435,-4.328 0.345,-6.24c1.643,0.761 1.89,2.184 2.306,3.498c0.79,2.483 1.579,4.966 2.383,7.446c0.307,0.944 0.596,1.914 1.917,2.691c2.029,-2.832 0.761,-6.001 1.137,-8.891c0.997,1.7 1.203,3.573 1.201,5.493c-0.003,4.406 -0.049,8.814 0.022,13.219c0.037,2.261 -0.297,4.422 -1.432,6.362c-1.185,2.025 -1.088,3.989 -0.161,6.022c0.745,1.637 1.557,3.234 1.756,5.079c0.109,1.007 0.748,1.852 1.487,2.556c2.534,2.412 3.551,5.743 5.518,8.589c-2.362,4.355 -4.646,8.449 -10.211,8.82c-0.836,0.056 -1.485,0.561 -2.166,0.98c-3.921,2.406 -7.867,4.757 -11.335,7.841c-1.472,1.308 -3.484,1.985 -4.578,3.775c-3.115,2.654 -6.729,4.532 -10.258,6.534c-1.014,0.575 -1.717,1.296 -2.084,2.303c-0.118,0.867 0.766,1.518 0.31,2.381c-1.659,1.921 -1.659,1.921 -4.85,2.048" style="fill:#cacaca;fill-rule:nonzero;"/><path d="M210.325,283.185c3.02,-2.744 6.134,-5.353 9.551,-7.618c2.887,-1.913 4.418,-5.079 6.493,-7.735c0.616,-0.786 1.127,-1.644 2.041,-2.132c1.314,-0.782 2.217,-2.019 3.334,-3.017c0.964,-0.863 1.895,-1.832 3.374,-1.481c1.464,2.35 1.524,4.32 0.003,7.008c-0.749,1.325 -1.372,2.671 -1.734,4.137c-1.196,4.834 -3.066,9.277 -7.008,12.598c-1.146,0.966 -2.189,2.066 -2.63,3.587c-1.362,4.708 -4.654,7.455 -9.527,9.235c-1.59,1.937 -3.168,4.655 -6.665,5.041c-0.794,-0.649 -1.937,-0.937 -2.491,-2.226c-0.088,-1.465 1.347,-2.795 0.916,-4.481c-0.437,-1.706 -2.412,-2.463 -2.612,-4.489c0.057,-2.062 1.435,-3.477 3.124,-4.658c1.495,-1.045 2.804,-2.259 3.831,-3.769" style="fill:#cacaca;fill-rule:nonzero;"/><path d="M210.325,283.185c-1.027,1.51 -2.336,2.724 -3.831,3.769c-1.689,1.181 -3.067,2.596 -3.124,4.658c0.2,2.026 2.175,2.783 2.612,4.489c0.431,1.686 -1.004,3.016 -0.916,4.481c0.554,1.289 1.697,1.577 2.491,2.226c3.497,-0.386 5.075,-3.104 6.665,-5.041c4.873,-1.78 8.165,-4.527 9.527,-9.235c0.441,-1.521 1.484,-2.621 2.63,-3.587c3.942,-3.321 5.812,-7.764 7.008,-12.598c0.362,-1.466 0.985,-2.812 1.734,-4.137c1.521,-2.688 1.461,-4.658 -0.003,-7.008c-1.479,-0.351 -2.41,0.618 -3.374,1.481c-1.117,0.998 -2.02,2.235 -3.334,3.017c1.165,-2.442 5.341,-6.601 7.757,-7.673c1.471,0.635 1.752,1.976 1.874,3.412c0.164,1.939 -0.07,3.981 -0.877,5.593c-2.159,4.306 -2.888,9.124 -5.119,13.375c-1.129,2.151 -2.957,3.758 -4.436,5.636c-0.807,1.027 -1.762,1.95 -2.194,3.196c-0.769,2.217 -2.033,4.044 -3.594,5.811c-2.639,2.988 -2.522,3.092 -5.842,4.189c-1.095,1.196 -2.259,2.309 -3.237,3.567c-2.434,3.13 -5.369,3.99 -9.388,1.961c-1.206,-1.496 -2.811,-3.288 -4.185,-5.243c-1.321,-1.881 -1.3,-3.861 0.215,-5.535c3,-3.315 5.205,-7.366 9.093,-9.87c0.594,-0.382 1.127,-0.825 1.848,-0.934" style="fill:#cacaca;fill-rule:nonzero;"/><path d="M187.417,293.437c-1.316,0.166 -2.074,1.156 -2.905,2.009c-1.002,1.029 -2.094,1.82 -3.788,1.888c-0.095,-1.894 0.509,-3.372 1.734,-4.666c2.669,-2.819 5.431,-5.541 7.762,-8.679c1.053,-1.417 2.863,-2.155 4.324,-3.176c1.612,-1.128 3.403,-2.017 5.052,-3.16c1.533,-1.063 3.521,-0.359 5.303,-0.496c-1.827,2.372 -3.819,4.548 -6.632,5.526c-1.792,2.878 -1.788,2.888 -5.019,4.543c-1.106,0.568 -2.013,1.269 -2.217,2.592c-1.14,1.27 -2.09,2.731 -3.614,3.619" style="fill:#cacaca;fill-rule:nonzero;"/><path d="M191.031,289.818c0.204,-1.322 1.111,-2.024 2.217,-2.591c3.231,-1.656 3.226,-1.666 5.02,-4.544c2.812,-0.978 4.804,-3.153 6.631,-5.526c3.192,-0.127 3.192,-0.127 4.851,-2.048c0.455,-0.864 -0.429,-1.514 -0.31,-2.381c0.365,-1.006 1.07,-1.729 2.083,-2.304c3.529,-2 7.142,-3.88 10.258,-6.532c-0.385,1.828 -1.866,2.793 -3.146,3.88c-1.368,1.164 -2.86,2.182 -4.258,3.314c-0.852,0.69 -1.845,1.393 -2.061,2.511c-0.483,2.514 -2.359,3.728 -4.378,4.576c-4.049,1.701 -7.291,4.527 -10.422,7.405c-1.977,1.818 -4.631,2.375 -6.485,4.24" style="fill:#cacaca;fill-rule:nonzero;"/><path d="M304.235,169.574c-2.917,7.874 -6.949,14.435 -13.211,19.212c0.539,-3.95 9.466,-17.44 13.211,-19.212" style="fill:#cacaca;fill-rule:nonzero;"/><path d="M177.876,363.056c1.827,1.444 3.807,2.622 3.281,5.278c-2.123,1.825 -3.587,2.062 -5.384,0.922c-1.671,-1.061 -2.133,-2.541 -1.07,-5.004c0.583,-1.35 0.249,-2.981 1.32,-4.231c1.634,0.461 0.804,2.224 1.853,3.035" style="fill:#bebebe;fill-rule:nonzero;"/><path d="M590.302,102.81c2.47,1.332 5.414,0.695 7.71,-1.54c-3.308,-1.584 -6.266,-1.064 -7.71,1.54m-81.413,33.052c-0.837,1.223 -0.793,2.283 0.058,2.968c2.475,1.992 2.891,4.937 3.816,7.662c1.299,3.824 2.368,4.507 6.323,4.671c5.122,0.209 10.172,-1.004 15.296,-0.632c4.318,0.314 8.567,-0.844 12.884,-0.672c0.501,0.02 0.975,-0.209 1.638,-0.93c0.736,-3.831 0.369,-8.57 4.872,-11.312c-1.253,-1.193 -2.532,-1.509 -3.813,-1.494c-5.411,0.061 -10.792,-0.502 -16.191,-0.668c-5.699,-0.175 -11.391,0.292 -17.113,-0.236c-2.538,-0.235 -5.362,-0.116 -7.77,0.643m-76.681,-42.001c8.49,-0.005 16.981,-0.003 25.472,-0.023c1.182,-0.003 2.417,0.212 3.479,-0.567c6.826,-0.103 13.652,0.486 20.478,0.003c1.163,0.83 2.505,0.567 3.784,0.569c12.408,0.02 24.817,0.018 37.226,0.022l0.001,0c1.736,1.041 3.529,1.801 5.629,1.819c15.428,0.138 30.857,-0.227 46.289,0.501c9.406,0.445 18.849,0.085 28.275,0.087c1.143,1.87 3.029,2.516 4.989,3.06c1.252,0.347 2.577,0.65 2.682,2.429c-0.775,1.266 -2.115,1.402 -3.364,1.67c-1.272,0.273 -2.638,0.281 -3.824,0.753c-3.612,1.439 -7.363,1.745 -11.183,1.739c-5.218,-0.009 -10.437,-0.01 -15.656,0.004c-1.089,0.003 -2.228,-0.185 -3.173,0.607c-0.02,0.188 -0.038,0.377 -0.054,0.565c-1.787,1.423 -1.753,3.443 -1.784,5.443c-1.641,1.52 -1.204,4.009 -2.521,5.589c-1.341,0.649 -2.669,0.437 -3.959,0.441c-10.134,0.028 -20.262,-0.029 -30.389,-0.564c-8.11,-0.43 -16.256,0.493 -24.362,-0.58c-1.573,-0.209 -3.22,-0.201 -4.798,0.192c-1.885,0.469 -3.838,0.577 -5.687,0.263c-3.119,-0.529 -6.176,-0.046 -9.258,-0.046c-6.932,0.002 -13.819,0.865 -20.746,0.737c-3.414,-0.062 -6.83,0 -10.245,0.028c-1.089,0.008 -2.228,-0.174 -3.194,0.567l-0.011,-0.004c-1.203,0.025 -2.419,-0.048 -3.609,0.099c-2.223,0.272 -4.6,2.129 -4.661,4.079c-0.074,2.407 -1.268,4.151 -2.481,5.992c-0.484,0.734 -1.185,1.404 -1.059,2.484c0.391,1.173 1.471,1.809 2.531,1.666c2.504,-0.336 5.002,0.646 7.476,-0.11c0.802,-0.244 1.581,0.018 2.377,0.097c2.699,0.267 5.404,0.395 8.09,-0.162c1.496,-0.311 2.981,-0.281 4.482,0.008c3.285,0.631 6.618,0.475 9.901,0.183c1.816,-0.16 3.553,-0.03 5.342,0.021c4.8,0.135 9.629,0.59 14.41,-0.313c1.335,-0.252 2.578,0.014 3.84,0.41c3.988,1.25 8.055,1.67 12.179,0.858c2.342,-0.462 4.565,0.428 6.879,0.395c7.028,-0.105 14.057,-0.03 21.085,-0.026c9.237,0.006 18.474,-0.024 27.711,0.034c3.215,0.019 6.433,0.281 9.331,1.888c1.315,0.729 3.054,0.06 4.267,1.343c-0.024,1.586 -1.086,2.02 -2.346,2.158c-5.257,0.577 -10.384,2.148 -15.763,1.864c-3.505,-0.185 -7.027,-0.079 -10.541,-0.014c-3.596,0.068 -5.042,1.478 -5.358,5.033c-0.263,2.959 -1.943,4.305 -5.217,4.621c-9.814,0.947 -19.66,0.215 -29.474,0.658c-9.927,0.449 -19.875,0.068 -29.768,0.681c-5.988,0.372 -12.098,-0.393 -17.966,1.141c-4.66,1.219 -9.346,1.031 -14.05,1.107c-2.81,0 -5.619,0.038 -8.428,-0.016c-1.738,-0.034 -3.39,0.355 -5.022,0.841c-1.414,0.42 -2.499,1.237 -2.836,2.81c-0.48,2.246 -1.787,3.976 -3.412,5.548c-1.798,1.739 -3.544,3.518 -5.085,5.524c-1.751,2.279 -4.183,3.8 -7.018,4.372c-2.078,0.419 -3.164,1.564 -3.549,3.536c-0.837,4.296 -3.45,7.363 -6.811,9.93c-0.794,0.606 -1.588,1.237 -2.263,1.966c-1.073,1.158 -2.38,1.791 -3.884,2.139c-4.4,1.02 -4.825,1.603 -4.577,6.425c-1.986,2.892 -4.667,5.442 -7.51,7.796c-1.88,1.558 -3.488,3.546 -6.214,3.951c-1.249,0.186 -2.01,1.525 -1.97,2.762c0.127,3.858 -2.853,5.715 -4.965,8.145c-0.206,-0.002 -0.411,-0.004 -0.617,-0.006c0.561,-0.833 1.005,-1.787 1.707,-2.476c2.072,-2.031 3.23,-4.343 2.577,-7.119c2.102,-3.153 2.928,-6.369 2.403,-9.909c-0.12,-0.806 0.069,-1.589 0.451,-2.33c1.144,-2.219 1.012,-4.556 0.067,-6.709c-1.047,-2.387 -1.507,-4.544 0.334,-6.726c0.297,-0.353 0.491,-0.958 0.438,-1.414c-0.376,-3.334 1.113,-6.53 0.559,-9.708c0.964,-1.634 2.097,-3.105 1.613,-4.91c-0.733,-2.729 -0.013,-5.151 1.181,-7.533c0.683,-1.367 1.103,-2.852 1.211,-4.33c0.153,-2.098 1.041,-3.852 1.985,-5.626c0.424,-0.795 1.063,-1.556 1.214,-2.402c0.692,-3.917 3.441,-6.454 5.882,-9.237c4.023,-4.587 9.041,-7.904 14.022,-11.292c1.534,-1.044 3.151,-1.737 4.949,-2.084c7.274,-1.403 14.572,-2.653 22.01,-2.65c2.37,0.001 4.102,-0.798 4.961,-3.099c0.712,-1.91 2.205,-2.677 4.104,-3.107c1.226,-0.277 2.38,-0.134 3.553,-0.016c2.426,-1.14 5.017,-1.642 7.608,-1.589c11.35,0.239 22.667,-1.085 34.014,-0.627c1.736,0.069 3.401,-0.803 5.069,-0.491c4.598,0.864 9.22,0.329 13.828,0.44c1.588,0.038 3.19,-0.43 4.774,-0.362c6.102,0.264 12.196,0.725 18.3,0.973c5.495,0.223 10.952,-0.823 16.496,-0.423c2.864,0.207 5.747,0.608 8.668,0.528c2.566,-0.071 4.141,-1.179 5.372,-3.189c0.862,-1.412 1.3,-2.932 1.18,-4.594c-0.108,-1.499 0.385,-2.721 1.499,-3.766c1.787,-1.677 2.277,-3.898 2.528,-6.249c-1.285,-1.373 -2.83,-1.904 -4.564,-2.198c-4.054,-0.686 -8.161,0.074 -12.216,-0.564c-2.321,-0.364 -4.58,0.435 -6.878,0.611c-4.799,0.368 -9.577,-1.278 -14.374,-0.084c-0.273,0.068 -0.608,-0.012 -0.891,-0.098c-1.965,-0.597 -3.984,-0.464 -5.988,-0.435c-2.323,0.034 -4.572,-0.168 -6.83,-0.867c-1.69,-0.523 -3.474,-1.124 -5.314,-0.793c-6.183,1.116 -12.406,0.216 -18.604,0.276c-3.269,0.031 -6.587,-0.438 -9.896,-0.438c-17.586,-0.001 -35.171,0.004 -52.757,-0.013c-1.281,-0.001 -2.633,0.285 -3.788,-0.593" style="fill:#ddd;fill-rule:nonzero;"/><path d="M308.393,183.62c-3.417,0.593 -4.489,3.95 -2.606,7.609c3.039,-1.259 4.107,-4.219 2.606,-7.609m-20.574,92.346c-4.163,-3.174 -9.182,-3.089 -11.987,0.042c1.939,1.609 9.19,1.669 11.987,-0.042m-3.676,-21.701c0.533,-1.89 0.764,-3.638 1.884,-4.997c1.489,-1.808 2.458,-3.902 3.334,-6.025c1.403,-3.409 3.69,-6.357 4.631,-10.054c0.628,-2.466 2.4,-4.825 4.525,-6.235c3.009,-2 5.399,-4.8 8.698,-6.389c1.63,-0.785 2.463,-2.159 2.748,-4.037c0.237,-1.559 0.264,-3.253 1.187,-4.631c1.588,-2.369 2.4,-5.063 3.39,-7.687c0.887,-2.352 1.604,-4.984 3.505,-6.581c3.244,-2.726 3.815,-6.667 5.596,-10.036c-1.033,-2.246 -1.472,-4.619 -2.932,-6.52c-0.923,0.498 -1.082,1.208 -1.29,1.869c-0.691,2.203 -1.373,4.407 -2.027,6.62c-0.787,2.658 -1.83,5.274 -4.381,6.605c-5.007,2.611 -8.359,7.123 -12.641,10.551c-1.525,1.221 -2.067,3.164 -3.343,4.61c-2.037,2.307 -4.281,4.474 -5.463,7.465c-0.502,1.274 -1.363,2.531 -2.372,3.456c-3.327,3.05 -4.133,7.474 -6.466,10.746c0.168,0.779 0.18,1.203 0.348,1.553c1.142,2.364 0.659,4.43 -0.955,6.412c-0.813,1 -1.707,2.085 -1.745,3.444c-0.057,2.108 -0.945,3.899 -1.948,5.629c-1.262,2.172 -1.251,4.62 -1.71,6.962c-0.173,0.884 -0.011,1.823 0.991,2.381c1.134,0.277 2.094,-0.2 3.093,-0.946c0.769,-1.54 1.742,-3.05 3.343,-4.165m148.065,-160.403c1.155,0.877 2.507,0.591 3.788,0.592c17.585,0.017 35.171,0.012 52.756,0.013c3.31,0 6.627,0.469 9.897,0.437c6.197,-0.059 12.421,0.841 18.604,-0.275c1.84,-0.331 3.624,0.27 5.313,0.793c2.259,0.699 4.507,0.901 6.83,0.867c2.004,-0.03 4.024,-0.162 5.988,0.435c0.284,0.086 0.619,0.166 0.892,0.098c4.797,-1.194 9.575,0.452 14.374,0.084c2.298,-0.176 4.556,-0.975 6.878,-0.61c4.054,0.636 8.162,-0.123 12.215,0.563c1.735,0.294 3.279,0.825 4.565,2.198c-0.25,2.351 -0.741,4.572 -2.528,6.248c-1.114,1.046 -1.606,2.268 -1.498,3.767c0.119,1.662 -0.319,3.182 -1.182,4.594c-1.229,2.01 -2.805,3.118 -5.371,3.189c-2.921,0.08 -5.805,-0.321 -8.668,-0.528c-5.545,-0.4 -11,0.646 -16.497,0.423c-6.103,-0.248 -12.197,-0.709 -18.3,-0.973c-1.582,-0.068 -3.186,0.4 -4.773,0.362c-4.608,-0.11 -9.23,0.424 -13.829,-0.439c-1.666,-0.313 -3.331,0.559 -5.068,0.49c-11.347,-0.458 -22.664,0.866 -34.013,0.627c-2.592,-0.053 -5.182,0.449 -7.609,1.589c-1.174,-0.118 -2.327,-0.261 -3.553,0.016c-1.899,0.43 -3.392,1.197 -4.105,3.107c-0.859,2.301 -2.59,3.1 -4.96,3.099c-7.439,-0.003 -14.735,1.247 -22.01,2.65c-1.797,0.347 -3.415,1.041 -4.948,2.084c-4.982,3.389 -10,6.705 -14.023,11.292c-2.441,2.783 -5.19,5.32 -5.883,9.237c-0.149,0.846 -0.788,1.607 -1.212,2.402c-0.944,1.774 -1.833,3.528 -1.985,5.626c-0.109,1.478 -0.528,2.963 -1.213,4.33c-1.192,2.382 -1.912,4.803 -1.18,7.533c0.483,1.804 -0.649,3.276 -1.613,4.91c0.554,3.178 -0.935,6.374 -0.558,9.708c0.051,0.456 -0.142,1.061 -0.439,1.414c-1.841,2.182 -1.38,4.339 -0.333,6.726c0.943,2.153 1.076,4.49 -0.067,6.709c-0.383,0.742 -0.572,1.523 -0.453,2.33c0.526,3.54 -0.3,6.756 -2.403,9.909c0.654,2.776 -0.504,5.088 -2.575,7.119c-0.703,0.689 -1.146,1.643 -1.708,2.476c-2.45,3.299 -6.497,3.478 -9.635,4.52c-1.098,2.509 -0.151,4.729 -1.1,7.052c-2.8,1.726 -4.617,4.797 -6.925,7.364c-1.713,0.544 -3.221,0.573 -4.408,-1.227c-0.003,-1.452 0.283,-3.042 -0.124,-4.625c0.533,-1.013 1.046,-1.987 1.558,-2.961c1.382,-2.636 0.275,-5.144 -2.611,-5.189c-3.052,-0.046 -6.141,-1.079 -9.212,0.247c-0.95,0.411 -2.178,0.234 -3.278,0.237c-7.133,0.017 -14.266,0.001 -21.399,0.012c-2.406,0.004 -4.802,-0.077 -7.194,0.47c-1.562,0.358 -3.177,-0.052 -4.779,-0.208c-3.366,-0.327 -6.796,-0.929 -10.048,0.721c-3.431,1.74 -6.129,7.03 -5.471,10.823c0.405,2.332 0.362,4.592 -0.889,6.713c-0.464,0.787 -0.858,1.703 -0.641,2.589c0.81,3.306 -0.397,6.576 -0.069,9.865c0.217,2.183 -0.097,4.186 -1.9,5.741c-0.42,0.361 -0.576,1.027 -0.907,1.652c1.922,2.595 4.213,4.203 7.621,3.864c1.788,-0.178 3.594,-0.004 5.387,-0.435c2.33,-0.558 4.564,0.026 6.915,0.942c1.567,5.211 -0.658,9.97 -1.899,15.21c-2.074,1.926 -4.704,2.963 -7.931,2.524c-2.86,-0.389 -5.686,-0.615 -8.639,-0.302c-4.271,0.452 -8.567,-0.871 -12.897,-0.489c-0.299,0.026 -0.603,0.003 -0.904,-0.015c-1.452,-0.091 -2.735,-0.571 -3.704,-1.558c-0.784,-1.318 -0.103,-2.409 0.42,-3.649c-2.246,-2.24 -2.179,-4.843 -1.443,-7.773c0.95,-3.78 1.564,-7.665 0.337,-11.554c-0.244,-0.772 -0.49,-1.607 -0.204,-2.37c1.271,-3.385 1.48,-7.091 3.132,-10.35c0.655,-1.289 0.981,-2.609 0.951,-4.054c-0.11,-5.248 0.903,-10.368 1.757,-15.51c0.319,-1.921 1.186,-3.389 2.766,-4.455c0.843,-0.568 1.657,-1.151 2.114,-2.091c1.142,-2.355 2.341,-4.652 4.301,-6.483c0.825,-0.771 0.99,-1.941 1.242,-3.025c0.907,-3.878 2.676,-7.207 5.386,-10.242c3.151,-3.529 5.267,-7.816 6.643,-12.372c0.517,-1.708 1.367,-3.358 1.223,-5.208c1.246,-1.8 2.628,-3.397 4.539,-4.38c1.794,-0.922 3.004,-2.287 3.825,-4.089c0.582,-1.279 1.35,-2.48 1.856,-3.787c1.164,-2.995 3.425,-4.85 6.053,-6.288c1.698,-0.058 2.976,0.747 3.547,2.033c1.26,2.838 2.533,5.82 1.15,8.979c-1.994,4.556 1.324,9.324 7.409,9.076c8.728,-0.354 17.439,-0.553 26.156,0.066c3.435,0.244 7.901,-3.677 8.055,-7.075c0.13,-2.897 0.017,-5.744 -0.358,-8.655c-0.36,-2.809 0.27,-5.772 0.664,-8.641c0.332,-2.415 0.411,-4.772 -0.092,-7.172c-0.578,-2.748 -1.144,-5.51 -1.481,-8.293c-0.525,-4.308 -3.591,-7.071 -5.972,-10.242c-1.199,-1.597 -2.687,-2.973 -3.971,-4.51c-0.911,-1.093 -2.144,-1.461 -3.419,-1.73c-1.081,-0.228 -2.221,-0.282 -3.161,-0.911c-1.81,-1.213 -3.753,-1.662 -5.946,-1.732c-2.2,-0.071 -3.931,-1.915 -6.195,-2.146c-0.957,-0.098 -2.048,-0.058 -2.913,-1.118c-0.87,-3.712 2.76,-7.233 0.979,-11.448c-3.901,-0.498 -4.181,3.245 -5.799,5.051c-1.324,1.04 -3.253,0.382 -4.073,1.967c-0.713,0.915 0.226,2.021 -0.413,2.92c-2.393,0.54 -5.147,-0.819 -6.565,-3.376c-1.027,-1.853 -2.154,-3.603 -3.761,-5.008c-2.128,-2.248 -1.982,-4.891 -1.245,-7.342c-0.463,-1.815 -1.637,-2.229 -3.016,-2.39c-4.869,-0.571 -9.723,-1.32 -14.607,-1.677c-3.518,-0.258 -6.906,-1.18 -10.395,-1.555c-1.999,-0.214 -3.418,-1.535 -4.347,-3.407c0.307,-1.711 1.426,-2.442 3,-2.926c5.784,-1.778 11.738,-2.05 17.717,-2.558c5.106,-0.434 10.214,-0.2 15.305,-0.672c1.875,-0.174 3.793,0.185 5.691,0.187c23.184,0.023 46.367,0.057 69.549,-0.009c3.03,-0.009 6.028,0.271 8.974,0.713c5.509,0.826 11.015,0.393 16.519,0.487c5.218,0.09 10.437,0.03 15.656,0.036" style="fill:#ddd;fill-rule:nonzero;"/><path d="M211.159,252.763c-3.533,2.698 -11.393,2.744 -14.405,-0.127c2.684,-2.619 5.862,-4.67 8.253,-7.661c2.267,-2.832 4.477,-5.932 7.835,-7.359c0.793,-2.3 0.686,-4.714 2.76,-5.98c1.572,0.285 1.611,2.253 3.117,2.377c2.504,-1.605 3.692,-4.183 2.99,-6.638c-2.015,-0.368 -3.165,3.728 -5.622,1.287c0.279,-3.218 4.088,-7.846 8.325,-10.1c0.26,-3.064 1.171,-6.125 1.037,-9.369c-0.085,-2.082 -0.809,-3.463 -2.718,-4.206c-2.133,-0.832 -4.277,-1.633 -6.542,-2.495c0.29,-1.635 1.39,-2.412 2.616,-2.719c2.127,-0.532 4.29,-1.065 6.516,-0.972c2.545,0.106 4.043,1.568 4.263,4.14c0.086,0.997 0.073,2.009 0.026,3.011c-0.159,3.353 0.214,6.612 1.705,9.716c-0.62,2.589 -0.064,5.057 0.307,7.65c0.508,3.551 1.642,6.747 2.943,9.991c1.489,3.712 -0.365,6.893 -2.904,9.445c-0.951,0.956 -2.205,1.381 -3.607,1.003c-2.372,-0.64 -4.804,-0.447 -7.192,-0.315c-3.916,0.216 -6.539,2.786 -8.907,5.551c-0.867,1.013 -0.145,2.584 -0.796,3.77" style="fill:#ddd;fill-rule:nonzero;"/><path d="M170.524,315.126c0.189,-2.432 1.772,-4.354 2.423,-6.618c1.324,-0.888 2.443,-2.088 4.115,-2.72c1.176,1.021 1.525,2.417 1.133,3.765c-0.95,3.267 -2.087,6.484 -3.239,9.69c-0.258,0.715 -0.751,1.433 -2.006,1.794c-1.802,-1.443 -1.995,-3.734 -2.426,-5.911" style="fill:#cacaca;fill-rule:nonzero;"/><path d="M186.221,237.354c0.003,-0.803 -0.192,-1.856 0.451,-2.29c2.326,-1.571 3.852,-3.952 5.989,-5.675c1.505,-1.213 3.469,-0.529 5.352,-0.701c2.522,-2.95 0.589,-7.463 3.45,-10.241c1.647,-0.686 2.96,-0.158 4.238,0.899c0.766,2.887 0.626,5.467 -1.642,7.776c-1.865,1.898 -3.089,4.177 -2.812,7.026c0.098,1.004 -0.113,2.009 -1.108,2.879c-2.307,0.695 -4.767,0.331 -6.931,-0.12c-1.266,-0.106 -1.944,0.664 -2.867,0.847c-1.153,-0.127 -2.343,-0.258 -3.531,-0.389c-0.197,-0.004 -0.393,-0.008 -0.589,-0.011" style="fill:#cacaca;fill-rule:nonzero;"/><path d="M212.741,231.334c-0.771,0.691 -1.109,1.652 -1.575,2.532c-1.223,2.305 -3.078,3.597 -5.667,3.681c-4.046,-3.771 -3.133,-6.944 3.008,-10.585c0.861,-0.865 0.619,-2.548 2.062,-3.106c0.967,-0.38 1.734,-0.06 2.425,0.76c0.886,2.236 -0.009,4.47 -0.253,6.721l0,-0.003Z" style="fill:#ddd;fill-rule:nonzero;"/><path d="M508.889,135.862c2.408,-0.759 5.232,-0.877 7.77,-0.643c5.722,0.527 11.414,0.062 17.113,0.236c5.399,0.165 10.781,0.729 16.191,0.667c1.28,-0.014 2.56,0.302 3.813,1.496c-4.502,2.741 -4.137,7.48 -4.872,11.31c-0.663,0.723 -1.137,0.95 -1.639,0.931c-4.316,-0.173 -8.565,0.985 -12.884,0.672c-5.123,-0.373 -10.173,0.841 -15.295,0.631c-3.955,-0.163 -5.024,-0.846 -6.322,-4.67c-0.926,-2.725 -1.342,-5.67 -3.817,-7.662c-0.851,-0.685 -0.895,-1.746 -0.058,-2.968" style="fill:#ddd;fill-rule:nonzero;"/><path d="M590.302,102.81c1.444,-2.604 4.402,-3.124 7.71,-1.54c-2.296,2.235 -5.24,2.872 -7.71,1.54" style="fill:#ddd;fill-rule:nonzero;"/><path d="M284.143,254.265c-1.601,1.114 -2.574,2.625 -3.343,4.165c-0.999,0.746 -1.959,1.223 -3.093,0.947c-1.002,-0.558 -1.164,-1.499 -0.991,-2.382c0.459,-2.342 0.448,-4.79 1.71,-6.962c1.003,-1.73 1.891,-3.521 1.948,-5.629c0.038,-1.359 0.932,-2.444 1.745,-3.444c1.614,-1.982 2.097,-4.048 0.955,-6.412c-0.168,-0.35 -0.18,-0.774 -0.348,-1.553c2.333,-3.272 3.139,-7.696 6.466,-10.746c1.009,-0.925 1.87,-2.182 2.372,-3.456c1.182,-2.991 3.426,-5.158 5.463,-7.465c1.276,-1.446 1.818,-3.389 3.343,-4.61c4.282,-3.428 7.634,-7.94 12.641,-10.551c2.551,-1.33 3.594,-3.946 4.381,-6.605c0.654,-2.213 1.336,-4.417 2.027,-6.62c0.208,-0.661 0.367,-1.371 1.29,-1.869c1.46,1.901 1.899,4.273 2.932,6.52c-1.781,3.37 -2.352,7.31 -5.596,10.036c-1.901,1.597 -2.618,4.229 -3.505,6.581c-0.99,2.624 -1.802,5.317 -3.39,7.687c-0.923,1.378 -0.95,3.072 -1.187,4.632c-0.285,1.877 -1.118,3.251 -2.748,4.036c-3.299,1.589 -5.689,4.389 -8.698,6.389c-2.125,1.411 -3.897,3.768 -4.525,6.236c-0.941,3.695 -3.228,6.644 -4.632,10.052c-0.875,2.124 -1.844,4.218 -3.333,6.026c-1.121,1.359 -1.351,3.107 -1.884,4.997" style="fill:#cacaca;fill-rule:nonzero;"/><path d="M287.82,275.966c-2.797,1.711 -10.049,1.65 -11.988,0.042c2.805,-3.131 7.825,-3.217 11.988,-0.042" style="fill:#cacaca;fill-rule:nonzero;"/><path d="M308.393,183.62c1.501,3.39 0.433,6.35 -2.606,7.609c-1.883,-3.659 -0.811,-7.016 2.606,-7.609" style="fill:#cacaca;fill-rule:nonzero;"/><g><g opacity="0.800003"><g><path d="M313.342,205.497l1.031,-9.83c0.264,-2.525 -1.718,-4.727 -4.258,-4.727l-31.084,0c-2.116,0 -3.891,1.6 -4.111,3.705l-11.545,110.213c-0.264,2.526 1.717,4.726 4.257,4.726l31.083,0c2.116,0 3.892,-1.599 4.111,-3.704l1.015,-9.683c0.265,-2.527 -1.716,-4.727 -4.257,-4.727l-13.447,0c-2.541,0 -4.522,-2.2 -4.258,-4.727l3.434,-32.784c0.22,-2.101 1.992,-3.696 4.105,-3.696l55.71,0c2.536,0 4.514,2.195 4.25,4.718l-9.215,87.968c-0.449,4.285 -4.061,7.538 -8.368,7.538l-76.386,0c-20.208,0 -36.169,-17.681 -34.068,-37.74l13.172,-125.741c2.211,-21.105 19.853,-36.968 41.116,-36.968l46.721,0c20.208,0 36.168,17.682 34.067,37.74l-1.963,18.742c-0.22,2.106 -1.996,3.704 -4.113,3.704l-32.741,0c-2.541,0 -4.523,-2.2 -4.258,-4.727" style="fill:#f47266;fill-rule:nonzero;"/><path d="M193.308,440.4l-4.458,42.463c-0.526,5.015 3.463,9.436 8.515,9.436l33.24,0c20.208,0 36.165,17.682 34.059,37.74l-2.678,25.517c-2.216,21.105 -19.863,36.968 -41.125,36.968l-79.989,0c-2.525,0 -4.521,-2.21 -4.257,-4.717l3.41,-32.49c0.222,-2.11 1.987,-3.697 4.112,-3.697l73.33,0c2.127,0 3.891,-1.586 4.113,-3.696l1.017,-9.689c0.263,-2.508 -1.732,-4.718 -4.258,-4.718l-38.004,0c-20.208,0 -36.165,-17.681 -34.06,-37.74l7.007,-66.735c2.215,-21.105 19.861,-36.968 41.124,-36.968l79.989,0c2.526,0 4.52,2.21 4.257,4.717l-3.442,32.79c-0.222,2.117 -1.996,3.706 -4.128,3.697l-69.517,-0.271c-4.264,-0.017 -7.813,3.16 -8.257,7.393" style="fill:#f47266;fill-rule:nonzero;"/><path d="M359.124,551.772l-31.082,0c-2.527,0 -4.523,-2.211 -4.258,-4.72l11.61,-110.228c0.223,-2.11 1.986,-3.695 4.111,-3.695l31.083,0c2.527,0 4.522,2.212 4.258,4.72l-11.611,110.23c-0.222,2.108 -1.986,3.693 -4.111,3.693m60.43,-39.43c-6.576,-3.133 -10.292,-10.028 -9.493,-17.613l6.82,-64.743c2.113,-20.065 -13.85,-37.76 -34.066,-37.76l-46.708,0c-21.253,0 -38.893,15.85 -41.114,36.944l-6.904,65.549c-0.801,7.595 -5.966,14.478 -13.204,17.623l-0.159,0.069l0.155,0.071c6.576,3.143 10.28,10.038 9.481,17.623l-2.614,24.812c-2.113,20.063 13.85,37.759 34.066,37.759l46.708,0c21.254,0 38.892,-15.851 41.115,-36.945l2.699,-25.626c0.798,-7.585 5.953,-14.469 13.191,-17.612l0.172,-0.082l-0.145,-0.069Z" style="fill:#f47266;fill-rule:nonzero;"/><path d="M445.768,309.584l-31.081,0c-2.528,0 -4.523,-2.212 -4.259,-4.72l11.611,-110.228c0.222,-2.109 1.986,-3.695 4.111,-3.695l31.082,0c2.527,0 4.522,2.212 4.258,4.72l-11.611,110.229c-0.221,2.109 -1.986,3.694 -4.111,3.694m60.431,-39.43c-6.577,-3.133 -10.291,-10.028 -9.493,-17.612l6.82,-64.744c2.113,-20.066 -13.851,-37.76 -34.067,-37.76l-46.708,0c-21.252,0 -38.891,15.85 -41.113,36.944l-6.904,65.548c-0.801,7.596 -5.966,14.479 -13.204,17.624l-0.16,0.069l0.157,0.07c6.575,3.145 10.278,10.039 9.479,17.624l-2.614,24.811c-2.113,20.065 13.851,37.76 34.067,37.76l46.709,0c21.252,0 38.891,-15.851 41.113,-36.945l2.699,-25.626c0.799,-7.585 5.953,-14.468 13.191,-17.612l0.172,-0.082l-0.144,-0.069Z" style="fill:#f47266;fill-rule:nonzero;"/><path d="M575.236,512.411l-0.171,0.071c-7.017,3.05 -12.031,9.618 -13.066,16.91l-6.244,59.391c-0.222,2.127 -2.006,3.753 -4.147,3.764l-35.495,0.258c-1.871,0.011 -3.519,-1.217 -4.055,-3.005l-27.536,-92.265l-9.574,91.53c-0.224,2.137 -2.032,3.763 -4.182,3.763l-32.746,0c-2.5,0 -4.552,-2.163 -4.291,-4.651l6.133,-58.352c0.68,-7.468 -2.945,-14.235 -9.442,-17.343l-0.157,-0.071l0.159,-0.069c6.981,-3.039 12.036,-9.549 13.104,-16.829l-0.049,-0.082l10.468,-99.593c0.225,-2.139 2.02,-3.763 4.182,-3.763l36.579,0c1.882,0 3.528,1.238 4.05,3.049l26.408,92.103l9.559,-91.389c0.224,-2.139 2.02,-3.763 4.182,-3.763l33.213,0c2.314,0 4.114,1.892 3.87,4.206l-10.42,99.15c-0.487,7.305 3.148,13.861 9.524,16.911l0.144,0.069Z" style="fill:#f47266;fill-rule:nonzero;"/></g></g></g></g><defs><linearGradient id="_Linear1" x1="0" y1="0" x2="1" y2="0" gradientUnits="userSpaceOnUse" gradientTransform="matrix(0,-800,800,0,356.301,800)"><stop offset="0" style="stop-color:#004479;stop-opacity:0.952941"/><stop offset="1" style="stop-color:#00acac;stop-opacity:0.952941"/></linearGradient></defs></svg>